<svg xmlns="http://www.w3.org/2000/svg" xmlns:xlink="http://www.w3.org/1999/xlink" viewBox="0 0 300 300" width="379" height="379" preserveAspectRatio="xMidYMid meet" style="width: 100%; height: 100%; transform: translate3d(0px, 0px, 0px); content-visibility: visible; background-color: rgb(255, 255, 255);"><defs><clipPath id="__lottie_element_2"><rect width="300" height="300" x="0" y="0"/></clipPath></defs><g clip-path="url(#__lottie_element_2)"><g transform="matrix(1,0,0,1,0,0)" opacity="1" style="display: block;"><g opacity="1" transform="matrix(1,0,0,1,149.83299255371094,210.56100463867188)"><path fill="rgb(58,87,123)" fill-opacity="1" d=" M10.204000473022461,3.010999917984009 C7.5269999504089355,5.688000202178955 4.182000160217285,7.026000022888184 0.16699999570846558,7.026000022888184 C-3.8480000495910645,7.026000022888184 -7.25,5.635000228881836 -10.036999702453613,2.8440001010894775 C-12.82800006866455,0.057999998331069946 -14.218999862670898,-3.2300000190734863 -14.218999862670898,-7.026000022888184 C-14.218999862670898,-7.026000022888184 14.218999862670898,-7.026000022888184 14.218999862670898,-7.026000022888184 C14.218999862670898,-3.010999917984009 12.880000114440918,0.33399999141693115 10.204000473022461,3.010999917984009z"/></g><g opacity="1" transform="matrix(1,0,0,1,150,139.29400634765625)"><path fill="rgb(58,87,123)" fill-opacity="1" d=" M42.823001861572266,2.006999969482422 C42.823001861572266,2.006999969482422 42.823001861572266,37.46900177001953 42.823001861572266,37.46900177001953 C42.823001861572266,37.46900177001953 57.20899963378906,51.85499954223633 57.20899963378906,51.85499954223633 C57.20899963378906,51.85499954223633 57.20899963378906,58.88199996948242 57.20899963378906,58.88199996948242 C57.20899963378906,58.88199996948242 -57.20899963378906,58.88199996948242 -57.20899963378906,58.88199996948242 C-57.20899963378906,58.88199996948242 -57.20899963378906,51.85499954223633 -57.20899963378906,51.85499954223633 C-57.20899963378906,51.85499954223633 -42.823001861572266,37.46900177001953 -42.823001861572266,37.46900177001953 C-42.823001861572266,37.46900177001953 -42.823001861572266,2.006999969482422 -42.823001861572266,2.006999969482422 C-42.823001861572266,-9.142999649047852 -39.979000091552734,-18.844999313354492 -34.29199981689453,-27.097999572753906 C-28.604000091552734,-35.34700012207031 -20.742000579833984,-40.70100021362305 -10.706000328063965,-43.15800094604492 C-10.706000328063965,-43.15800094604492 -10.706000328063965,-48.17599868774414 -10.706000328063965,-48.17599868774414 C-10.706000328063965,-51.07099914550781 -9.70199966430664,-53.582000732421875 -7.695000171661377,-55.70399856567383 C-5.688000202178955,-57.82099914550781 -3.125999927520752,-58.88199996948242 0,-58.88199996948242 C3.121000051498413,-58.88199996948242 5.686999797821045,-57.82099914550781 7.695000171661377,-55.70399856567383 C9.70199966430664,-53.582000732421875 10.706000328063965,-51.07099914550781 10.706000328063965,-48.17599868774414 C10.706000328063965,-48.17599868774414 10.706000328063965,-43.15800094604492 10.706000328063965,-43.15800094604492 C20.742000579833984,-40.70100021362305 28.604000091552734,-35.34700012207031 34.29199981689453,-27.097999572753906 C39.979000091552734,-18.844999313354492 42.823001861572266,-9.142999649047852 42.823001861572266,2.006999969482422z"/></g><g opacity="0" transform="matrix(0,0,0,0,107.64600372314453,109.68599700927734)"><path fill="rgb(58,87,123)" fill-opacity="1" d=" M19.9060001373291,-17.898000717163086 C4.066999912261963,-6.743000030517578 -4.406000137329102,8.531999588012695 -5.519999980926514,27.934999465942383 C-5.519999980926514,27.934999465942383 -19.9060001373291,27.934999465942383 -19.9060001373291,27.934999465942383 C-18.792999267578125,4.966000080108643 -8.980999946594238,-13.659000396728516 9.53499984741211,-27.934999465942383 C9.53499984741211,-27.934999465942383 19.9060001373291,-17.898000717163086 19.9060001373291,-17.898000717163086z"/></g><g opacity="0.20833333333333337" transform="matrix(0,0,0,0,192.52099609375,109.68599700927734)"><path fill="rgb(58,87,123)" fill-opacity="1" d=" M5.353000164031982,27.934999465942383 C4.235000133514404,8.755999565124512 -4.129000186920166,-6.52400016784668 -19.738000869750977,-17.898000717163086 C-19.738000869750977,-17.898000717163086 -9.70199966430664,-27.934999465942383 -9.70199966430664,-27.934999465942383 C8.809000015258789,-13.659000396728516 18.6200008392334,4.966000080108643 19.738000869750977,27.934999465942383 C19.738000869750977,27.934999465942383 5.353000164031982,27.934999465942383 5.353000164031982,27.934999465942383z"/></g></g></g></svg>