<svg width="593" height="637" viewBox="0 0 593 637" fill="none" xmlns="http://www.w3.org/2000/svg">
<path d="M533.581 507.676H494.301V507.995H533.581V507.676Z" fill="#EBEBEB"/>
<path d="M392.828 511.141H382.521V511.46H392.828V511.141Z" fill="#EBEBEB"/>
<path d="M493.115 495.854H470.355V496.172H493.115V495.854Z" fill="#EBEBEB"/>
<path d="M113.44 497.994H62.2168V498.312H113.44V497.994Z" fill="#EBEBEB"/>
<path d="M131.515 497.994H124.008V498.312H131.515V497.994Z" fill="#EBEBEB"/>
<path d="M267.028 503.37H155.924V503.689H267.028V503.37Z" fill="#EBEBEB"/>
<path d="M282.742 430.357H53.7252C51.9291 430.357 50.2066 429.591 48.9366 428.226C47.6666 426.862 46.9531 425.012 46.9531 423.083V77.2808C46.9688 75.3625 47.6891 73.5285 48.9575 72.178C50.2258 70.8275 51.9393 70.0699 53.7252 70.0699H282.742C283.631 70.0699 284.512 70.2581 285.333 70.6237C286.155 70.9893 286.902 71.5251 287.53 72.2006C288.159 72.8761 288.658 73.6781 288.998 74.5606C289.339 75.4432 289.514 76.3892 289.514 77.3445V423.083C289.514 424.038 289.339 424.984 288.998 425.866C288.658 426.749 288.159 427.551 287.53 428.226C286.902 428.902 286.155 429.438 285.333 429.803C284.512 430.169 283.631 430.357 282.742 430.357ZM53.7252 70.3247C52.0087 70.3281 50.3635 71.0621 49.1497 72.3658C47.936 73.6696 47.2528 75.437 47.2496 77.2808V423.083C47.2528 424.926 47.936 426.694 49.1497 427.998C50.3635 429.301 52.0087 430.035 53.7252 430.039H282.742C284.458 430.035 286.104 429.301 287.317 427.998C288.531 426.694 289.214 424.926 289.217 423.083V77.2808C289.214 75.437 288.531 73.6696 287.317 72.3658C286.104 71.0621 284.458 70.3281 282.742 70.3247H53.7252Z" fill="#EBEBEB"/>
<path d="M539.275 430.357H310.258C308.462 430.357 306.74 429.591 305.47 428.226C304.2 426.862 303.486 425.012 303.486 423.083V77.2808C303.502 75.3625 304.222 73.5285 305.491 72.178C306.759 70.8275 308.473 70.0699 310.258 70.0699H539.275C541.071 70.0699 542.794 70.8364 544.064 72.2006C545.334 73.5649 546.047 75.4152 546.047 77.3445V423.083C546.047 425.012 545.334 426.862 544.064 428.226C542.794 429.591 541.071 430.357 539.275 430.357ZM310.258 70.3247C308.542 70.3281 306.897 71.0621 305.683 72.3658C304.469 73.6696 303.786 75.437 303.783 77.2808V423.083C303.786 424.926 304.469 426.694 305.683 427.998C306.897 429.301 308.542 430.035 310.258 430.039H539.275C540.991 430.035 542.637 429.301 543.85 427.998C545.064 426.694 545.747 424.926 545.751 423.083V77.2808C545.747 75.437 545.064 73.6696 543.85 72.3658C542.637 71.0621 540.991 70.3281 539.275 70.3247H310.258Z" fill="#EBEBEB"/>
<path d="M593 487.178H0V487.496H593V487.178Z" fill="#EBEBEB"/>
<path d="M141.526 400.991C140.53 388.685 128.836 384.085 114.972 385.385C101.107 386.684 90.3503 393.398 91.3228 405.705L141.526 400.991Z" fill="#F0F0F0"/>
<path d="M114.52 379.767C120.948 379.155 123 373.32 122.442 366.415C121.885 359.51 118.884 354.146 112.48 354.745C106.075 355.344 104 361.192 104.557 368.097C105.115 375.002 108.092 380.365 114.52 379.767Z" fill="#F0F0F0"/>
<path d="M403.359 138.866C403.472 140.232 403.204 141.603 402.591 142.806C401.978 144.008 401.047 144.989 399.915 145.622C398.783 146.256 397.502 146.515 396.233 146.367C394.964 146.218 393.764 145.668 392.786 144.787C391.808 143.906 391.096 142.733 390.738 141.417C390.381 140.1 390.395 138.699 390.779 137.392C391.163 136.084 391.9 134.928 392.896 134.07C393.892 133.212 395.102 132.691 396.373 132.572C398.076 132.413 399.769 132.987 401.078 134.167C402.388 135.347 403.208 137.037 403.359 138.866Z" fill="#F5F5F5"/>
<path d="M439.022 135.477C439.132 136.84 438.863 138.208 438.25 139.407C437.637 140.606 436.706 141.583 435.576 142.214C434.446 142.845 433.167 143.101 431.901 142.952C430.635 142.802 429.439 142.252 428.463 141.372C427.488 140.492 426.778 139.321 426.422 138.007C426.067 136.694 426.081 135.296 426.465 133.991C426.849 132.687 427.584 131.534 428.578 130.678C429.572 129.822 430.779 129.302 432.048 129.184C433.749 129.028 435.438 129.603 436.745 130.783C438.052 131.962 438.871 133.65 439.022 135.477Z" fill="#F5F5F5"/>
<path d="M474.697 132.127C474.809 133.492 474.542 134.863 473.929 136.066C473.316 137.269 472.385 138.249 471.253 138.883C470.121 139.517 468.839 139.776 467.571 139.627C466.302 139.478 465.102 138.929 464.124 138.048C463.146 137.166 462.433 135.993 462.076 134.677C461.719 133.361 461.733 131.96 462.117 130.652C462.501 129.345 463.238 128.189 464.234 127.331C465.229 126.473 466.44 125.952 467.711 125.833C469.414 125.674 471.107 126.247 472.416 127.427C473.726 128.607 474.546 130.297 474.697 132.127Z" fill="#F5F5F5"/>
<path d="M406.537 177.876C406.649 179.242 406.382 180.613 405.769 181.815C405.156 183.018 404.225 183.998 403.093 184.632C401.961 185.266 400.679 185.525 399.41 185.376C398.141 185.228 396.942 184.678 395.964 183.797C394.986 182.916 394.273 181.743 393.916 180.426C393.559 179.11 393.573 177.709 393.957 176.402C394.341 175.094 395.078 173.938 396.073 173.08C397.069 172.222 398.28 171.701 399.551 171.582C401.254 171.423 402.946 171.997 404.256 173.177C405.566 174.357 406.386 176.047 406.537 177.876Z" fill="#F5F5F5"/>
<path d="M442.2 174.538C442.31 175.901 442.041 177.269 441.428 178.468C440.814 179.667 439.884 180.643 438.754 181.274C437.624 181.905 436.345 182.162 435.079 182.012C433.813 181.863 432.616 181.313 431.641 180.433C430.666 179.553 429.956 178.382 429.6 177.068C429.244 175.754 429.259 174.357 429.643 173.052C430.027 171.748 430.762 170.594 431.756 169.739C432.749 168.883 433.957 168.363 435.226 168.244C436.069 168.166 436.917 168.266 437.724 168.54C438.53 168.813 439.279 169.255 439.926 169.84C440.574 170.424 441.108 171.14 441.498 171.946C441.888 172.752 442.126 173.633 442.2 174.538Z" fill="#F5F5F5"/>
<path d="M477.875 171.175C477.987 172.54 477.72 173.911 477.107 175.114C476.494 176.317 475.562 177.297 474.431 177.931C473.299 178.565 472.017 178.824 470.748 178.675C469.479 178.527 468.28 177.977 467.302 177.096C466.324 176.215 465.611 175.042 465.254 173.725C464.897 172.409 464.911 171.008 465.295 169.7C465.679 168.393 466.416 167.237 467.411 166.379C468.407 165.521 469.617 165 470.889 164.881C472.592 164.722 474.284 165.295 475.594 166.475C476.904 167.655 477.724 169.346 477.875 171.175Z" fill="#F5F5F5"/>
<path d="M409.715 216.937C409.825 218.3 409.557 219.667 408.943 220.866C408.33 222.065 407.399 223.042 406.269 223.673C405.139 224.304 403.86 224.561 402.594 224.411C401.328 224.261 400.132 223.712 399.157 222.832C398.182 221.951 397.471 220.781 397.116 219.467C396.76 218.153 396.775 216.756 397.159 215.451C397.542 214.146 398.277 212.993 399.271 212.137C400.265 211.282 401.473 210.762 402.742 210.643C403.584 210.563 404.434 210.662 405.241 210.935C406.048 211.208 406.797 211.649 407.445 212.234C408.093 212.819 408.627 213.535 409.017 214.342C409.406 215.149 409.644 216.031 409.715 216.937Z" fill="#F5F5F5"/>
<path d="M445.39 213.573C445.503 214.939 445.236 216.31 444.623 217.513C444.01 218.716 443.078 219.696 441.946 220.33C440.814 220.964 439.533 221.223 438.264 221.074C436.995 220.925 435.796 220.376 434.818 219.494C433.839 218.613 433.127 217.44 432.77 216.124C432.412 214.807 432.427 213.407 432.811 212.099C433.195 210.791 433.931 209.636 434.927 208.778C435.923 207.92 437.133 207.398 438.405 207.28C440.108 207.121 441.8 207.694 443.11 208.874C444.419 210.054 445.24 211.744 445.39 213.573Z" fill="#F5F5F5"/>
<path d="M481.054 210.21C481.167 211.576 480.9 212.947 480.287 214.15C479.674 215.352 478.742 216.333 477.61 216.966C476.478 217.6 475.197 217.859 473.928 217.711C472.659 217.562 471.46 217.012 470.482 216.131C469.504 215.25 468.791 214.077 468.434 212.761C468.076 211.444 468.091 210.043 468.475 208.736C468.859 207.428 469.595 206.272 470.591 205.414C471.587 204.556 472.797 204.035 474.069 203.916C475.772 203.757 477.464 204.331 478.774 205.511C480.083 206.691 480.904 208.381 481.054 210.21Z" fill="#F5F5F5"/>
<path d="M473.345 212.478L400.074 219.357L465.043 134.56L398.496 140.815C398.311 140.834 398.123 140.813 397.945 140.754C397.767 140.694 397.602 140.596 397.459 140.467C397.316 140.338 397.199 140.179 397.115 140C397.03 139.822 396.98 139.626 396.966 139.427C396.933 139.026 397.05 138.628 397.29 138.32C397.53 138.012 397.875 137.819 398.247 137.783L471.53 130.903L406.549 215.701L473.119 209.446C473.495 209.414 473.867 209.541 474.155 209.801C474.443 210.061 474.625 210.432 474.661 210.834C474.676 211.035 474.653 211.237 474.595 211.429C474.537 211.62 474.444 211.797 474.321 211.95C474.199 212.103 474.05 212.228 473.882 212.319C473.714 212.409 473.532 212.463 473.345 212.478Z" fill="#E6E6E6"/>
<path d="M474.472 363.867C474.359 363.496 474.147 363.169 473.863 362.927C473.578 362.684 473.233 362.537 472.871 362.504C469.685 362.346 466.669 360.915 464.415 358.491C461.485 355.319 459.766 350.516 459.481 344.808C459.454 344.293 459.245 343.809 458.897 343.454C458.548 343.099 458.087 342.899 457.607 342.897C457.348 342.898 457.091 342.956 456.853 343.067C456.615 343.178 456.4 343.339 456.222 343.542C456.043 343.744 455.905 343.983 455.815 344.245C455.725 344.506 455.685 344.784 455.698 345.063C456.03 351.764 458.141 357.497 461.734 361.357C464.549 364.385 468.282 366.225 472.254 366.542H472.527C472.839 366.568 473.152 366.51 473.438 366.375C473.724 366.239 473.974 366.029 474.167 365.765C474.359 365.5 474.488 365.188 474.541 364.857C474.594 364.526 474.571 364.186 474.472 363.867Z" fill="#F0F0F0"/>
<path d="M470.676 388.315C454.961 386.837 443.623 375.333 440.042 357.37C439.985 357.1 439.979 356.821 440.025 356.548C440.071 356.276 440.168 356.017 440.31 355.786C440.452 355.555 440.635 355.358 440.85 355.205C441.065 355.052 441.306 354.948 441.56 354.898C442.04 354.806 442.534 354.917 442.94 355.206C443.347 355.496 443.634 355.942 443.742 356.452C446.956 372.594 457.037 382.939 471.02 384.251C486.343 385.691 502.793 374.862 505.746 347.573C505.797 347.04 506.041 346.551 506.425 346.21C506.808 345.87 507.302 345.705 507.798 345.751C508.049 345.773 508.294 345.849 508.517 345.975C508.74 346.1 508.938 346.273 509.099 346.482C509.259 346.691 509.379 346.932 509.451 347.192C509.522 347.451 509.545 347.724 509.517 347.993C506.683 373.728 490.933 390.213 470.676 388.315Z" fill="#F0F0F0"/>
<path d="M441.026 339.47C440.775 339.448 440.53 339.372 440.307 339.246C440.083 339.121 439.886 338.948 439.725 338.739C439.565 338.53 439.445 338.289 439.373 338.029C439.301 337.769 439.279 337.497 439.306 337.228C442.129 311.493 457.879 294.995 478.124 296.906C495.914 298.575 507.834 312.843 509.696 334.336C509.715 334.606 509.684 334.877 509.605 335.134C509.525 335.391 509.399 335.628 509.234 335.832C509.068 336.036 508.866 336.202 508.64 336.322C508.414 336.441 508.168 336.511 507.917 336.527C507.422 336.552 506.937 336.369 506.565 336.017C506.193 335.665 505.963 335.172 505.924 334.642C504.204 315.277 493.566 302.448 477.804 300.97C462.54 299.53 446.019 310.346 443.078 337.61C443.057 337.877 442.987 338.137 442.873 338.375C442.758 338.613 442.601 338.824 442.411 338.997C442.22 339.169 442 339.3 441.762 339.381C441.525 339.463 441.275 339.493 441.026 339.47Z" fill="#F0F0F0"/>
<path d="M471.447 377.397C468.63 377.154 465.869 376.414 463.276 375.206C463.034 375.092 462.817 374.925 462.638 374.717C462.459 374.508 462.322 374.262 462.237 373.994C462.151 373.726 462.118 373.441 462.139 373.159C462.161 372.876 462.237 372.601 462.362 372.352C462.585 371.914 462.95 371.58 463.389 371.416C463.827 371.251 464.306 371.267 464.734 371.46C467.207 372.601 469.85 373.257 472.538 373.397C484.149 374.11 496.412 365.269 497.622 343.916C498.358 330.756 494.159 320.131 486.331 315.047C485.926 314.784 485.627 314.368 485.494 313.88C485.36 313.392 485.401 312.868 485.608 312.41C485.726 312.157 485.891 311.933 486.093 311.752C486.295 311.571 486.529 311.436 486.782 311.356C487.034 311.276 487.299 311.252 487.56 311.287C487.822 311.321 488.073 311.413 488.3 311.557C497.373 317.443 502.236 329.393 501.406 344.158C500.22 364.746 488.288 378.454 472.313 377.473L471.447 377.397Z" fill="#F0F0F0"/>
<path d="M454.558 364.695C454.34 364.854 454.094 364.963 453.835 365.015C453.575 365.067 453.309 365.061 453.052 364.998C452.795 364.934 452.553 364.815 452.341 364.647C452.129 364.478 451.951 364.265 451.819 364.02C448.303 356.999 446.758 349.033 447.371 341.088C448.486 321.379 459.48 307.964 474.412 307.735C474.675 307.729 474.936 307.782 475.179 307.89C475.423 307.997 475.642 308.158 475.825 308.361C476.008 308.565 476.149 308.806 476.241 309.071C476.332 309.336 476.372 309.618 476.357 309.9C476.328 310.41 476.121 310.889 475.778 311.243C475.436 311.597 474.982 311.8 474.507 311.811C463.43 312.041 452.305 321.035 451.167 341.33C450.591 348.502 451.967 355.698 455.128 362.045C455.366 362.486 455.439 363.007 455.333 363.503C455.228 364 454.951 364.435 454.558 364.721V364.695Z" fill="#F0F0F0"/>
<path d="M480.484 363.09C480.305 362.637 480.284 362.129 480.425 361.661C480.567 361.192 480.862 360.795 481.255 360.542C486.248 357.319 489.308 350.554 489.356 342.387C489.356 335.852 487.636 330.323 484.386 326.819C483.124 325.476 481.62 324.424 479.966 323.727C478.312 323.03 476.543 322.704 474.768 322.768C468.921 322.768 464.177 326.22 461.556 332.285C461.354 332.746 460.997 333.108 460.558 333.299C460.118 333.49 459.627 333.497 459.184 333.317C458.936 333.218 458.711 333.066 458.521 332.869C458.331 332.672 458.181 332.435 458.081 332.173C457.981 331.911 457.932 331.629 457.938 331.346C457.944 331.062 458.005 330.783 458.116 330.526C461.366 323.099 467.45 318.704 474.72 318.691C476.998 318.628 479.263 319.06 481.381 319.962C483.499 320.865 485.425 322.217 487.043 323.94C491.016 328.221 493.174 334.782 493.127 342.426C493.056 352.044 489.284 360.122 483.141 364.084C482.908 364.22 482.652 364.303 482.388 364.326C482.123 364.35 481.858 364.313 481.607 364.22C481.357 364.126 481.128 363.977 480.934 363.783C480.741 363.588 480.588 363.352 480.484 363.09Z" fill="#F0F0F0"/>
<path d="M466.822 348.044C466.568 348.155 466.296 348.206 466.022 348.193C465.749 348.18 465.482 348.104 465.238 347.969C464.995 347.835 464.781 347.646 464.613 347.415C464.444 347.183 464.323 346.916 464.26 346.63C464.129 346.082 464.035 345.509 463.952 344.923C462.872 337.279 466.691 330.667 472.823 329.482C474.251 329.148 475.731 329.178 477.146 329.57C478.561 329.962 479.871 330.704 480.971 331.737C481.177 331.934 481.339 332.178 481.446 332.452C481.552 332.726 481.599 333.022 481.585 333.318C481.57 333.614 481.493 333.903 481.36 334.163C481.227 334.423 481.041 334.648 480.816 334.82L480.698 334.909C480.342 335.175 479.912 335.301 479.48 335.266C479.048 335.231 478.641 335.038 478.326 334.718C477.661 334.115 476.874 333.686 476.028 333.464C475.182 333.243 474.3 333.236 473.451 333.444C468.779 334.348 467 339.572 467.664 344.26C467.735 344.719 467.806 345.165 467.913 345.534C468.027 346.014 467.976 346.522 467.769 346.965C467.562 347.407 467.213 347.754 466.786 347.942L466.822 348.044Z" fill="#F0F0F0"/>
<path d="M473.095 355.892C472.796 355.86 472.509 355.748 472.262 355.564C472.015 355.38 471.815 355.132 471.682 354.843C471.549 354.553 471.487 354.232 471.502 353.909C471.517 353.587 471.608 353.274 471.767 353L471.933 352.72C472.103 352.428 472.344 352.191 472.631 352.036C472.917 351.881 473.238 351.814 473.558 351.841C474.153 351.877 474.75 351.839 475.337 351.726C479.416 350.936 481.267 346.859 481.267 342.706C481.255 342.207 481.412 341.721 481.708 341.336C482.005 340.952 482.421 340.697 482.879 340.617C483.143 340.573 483.411 340.59 483.668 340.666C483.925 340.742 484.164 340.874 484.37 341.056C484.576 341.237 484.744 341.463 484.863 341.719C484.982 341.975 485.05 342.255 485.062 342.54C485.168 349.191 481.504 354.682 476.013 355.739C475.051 355.93 474.069 355.981 473.095 355.892Z" fill="#F0F0F0"/>
<path d="M473.937 348.363C472.979 348.276 472.071 347.869 471.339 347.2C470.607 346.53 470.089 345.632 469.857 344.63C469.79 344.347 469.787 344.051 469.848 343.767C469.909 343.483 470.032 343.218 470.207 342.995C470.382 342.772 470.604 342.597 470.855 342.485C471.105 342.373 471.377 342.326 471.648 342.349H472.087C472.419 342.387 472.734 342.527 472.993 342.753C473.252 342.979 473.444 343.282 473.546 343.623C473.587 343.801 473.679 343.96 473.809 344.079C473.938 344.198 474.099 344.27 474.269 344.286C475.182 344.375 475.337 343.012 475.36 342.68C475.415 342.185 475.328 341.682 475.111 341.241C474.784 340.816 474.615 340.276 474.637 339.725C474.667 339.32 474.809 338.934 475.044 338.616C475.28 338.299 475.599 338.064 475.959 337.942C476.32 337.82 476.706 337.817 477.068 337.933C477.431 338.048 477.753 338.277 477.993 338.591C478.919 339.847 479.345 341.445 479.179 343.037C478.871 346.388 476.677 348.617 473.937 348.363Z" fill="#F0F0F0"/>
<path d="M438.263 302.766C438.015 302.744 437.773 302.669 437.552 302.546C437.332 302.422 437.136 302.254 436.976 302.049C436.816 301.844 436.695 301.607 436.621 301.352C436.547 301.097 436.52 300.828 436.543 300.562L437.978 282.892L454.428 284.446C454.676 284.468 454.917 284.543 455.138 284.666C455.359 284.79 455.555 284.958 455.715 285.163C455.875 285.368 455.995 285.605 456.07 285.86C456.144 286.115 456.17 286.384 456.148 286.65C456.127 286.917 456.057 287.177 455.943 287.415C455.828 287.653 455.671 287.864 455.481 288.037C455.29 288.209 455.07 288.34 454.832 288.421C454.595 288.503 454.344 288.533 454.096 288.51L441.429 287.312L440.326 300.919C440.304 301.186 440.233 301.445 440.117 301.683C440.001 301.92 439.843 302.131 439.651 302.302C439.46 302.474 439.238 302.603 439 302.683C438.762 302.762 438.511 302.791 438.263 302.766Z" fill="#F0F0F0"/>
<path d="M516.456 310.117C516.208 310.095 515.967 310.02 515.746 309.897C515.525 309.773 515.329 309.605 515.169 309.4C515.009 309.195 514.889 308.958 514.814 308.703C514.74 308.448 514.714 308.179 514.736 307.913L515.839 294.307L503.173 293.122C502.924 293.098 502.683 293.021 502.462 292.897C502.241 292.773 502.045 292.603 501.885 292.397C501.725 292.191 501.605 291.953 501.531 291.697C501.457 291.441 501.43 291.172 501.453 290.905C501.474 290.639 501.544 290.379 501.658 290.142C501.773 289.905 501.93 289.694 502.121 289.523C502.312 289.351 502.532 289.221 502.77 289.142C503.007 289.062 503.257 289.033 503.505 289.058L519.955 290.599L518.52 308.308C518.466 308.84 518.219 309.328 517.833 309.667C517.447 310.005 516.952 310.167 516.456 310.117Z" fill="#F0F0F0"/>
<path d="M510.633 405.132L494.183 403.59C493.934 403.566 493.693 403.49 493.472 403.366C493.251 403.241 493.055 403.071 492.895 402.865C492.735 402.659 492.615 402.422 492.541 402.166C492.467 401.91 492.44 401.641 492.463 401.374C492.484 401.107 492.554 400.848 492.668 400.611C492.783 400.373 492.94 400.163 493.131 399.991C493.322 399.819 493.542 399.69 493.78 399.61C494.017 399.53 494.267 399.502 494.515 399.526L507.181 400.711L508.284 387.118C508.305 386.85 508.375 386.589 508.49 386.35C508.606 386.111 508.764 385.899 508.956 385.726C509.147 385.553 509.369 385.423 509.608 385.342C509.847 385.262 510.099 385.233 510.348 385.258C510.596 385.28 510.837 385.355 511.058 385.478C511.279 385.601 511.475 385.77 511.635 385.975C511.795 386.18 511.915 386.417 511.99 386.672C512.064 386.927 512.09 387.195 512.068 387.462L510.633 405.132Z" fill="#F0F0F0"/>
<path d="M445.106 398.94L428.656 397.386L430.091 379.728C430.14 379.19 430.383 378.693 430.769 378.345C431.155 377.997 431.653 377.826 432.155 377.868C432.403 377.892 432.645 377.969 432.866 378.093C433.087 378.218 433.283 378.388 433.443 378.594C433.603 378.799 433.723 379.037 433.797 379.293C433.871 379.549 433.897 379.818 433.875 380.085L432.772 393.666L445.426 394.863C445.675 394.886 445.917 394.961 446.138 395.084C446.36 395.207 446.556 395.375 446.717 395.58C446.878 395.785 447 396.021 447.075 396.277C447.151 396.532 447.179 396.801 447.158 397.068C447.116 397.608 446.876 398.108 446.492 398.458C446.107 398.809 445.609 398.983 445.106 398.94Z" fill="#F0F0F0"/>
<path d="M88.6291 360.708C88.32 360.732 88.0142 360.626 87.777 360.412C87.5398 360.198 87.3902 359.892 87.3601 359.561L86.4824 348.707L96.5871 347.751C96.8962 347.726 97.202 347.832 97.4392 348.046C97.6764 348.261 97.826 348.566 97.8562 348.898C97.8761 349.227 97.7759 349.553 97.5767 349.805C97.3776 350.057 97.095 350.216 96.7888 350.248L89.0086 350.987L89.6846 359.344C89.708 359.674 89.6109 360.001 89.4138 360.256C89.2168 360.51 88.9354 360.672 88.6291 360.708Z" fill="#E0E0E0"/>
<path d="M136.711 356.185C136.403 356.21 136.099 356.106 135.862 355.894C135.625 355.682 135.475 355.38 135.442 355.051L134.766 346.681L126.974 347.42C126.664 347.445 126.359 347.339 126.121 347.124C125.884 346.91 125.735 346.604 125.704 346.273C125.681 345.941 125.78 345.613 125.98 345.358C126.179 345.103 126.463 344.942 126.772 344.91L136.877 343.967L137.766 354.822C137.789 355.152 137.692 355.478 137.495 355.733C137.298 355.987 137.017 356.149 136.711 356.185Z" fill="#E0E0E0"/>
<path d="M141.692 402.953L131.575 403.909C131.266 403.934 130.96 403.828 130.723 403.613C130.486 403.399 130.336 403.094 130.306 402.762C130.283 402.43 130.382 402.102 130.581 401.847C130.781 401.592 131.065 401.432 131.373 401.399L139.154 400.673L138.478 392.316C138.454 391.986 138.551 391.659 138.748 391.404C138.945 391.15 139.227 390.988 139.533 390.952C139.84 390.927 140.145 391.032 140.381 391.243C140.618 391.455 140.769 391.757 140.802 392.086L141.692 402.953Z" fill="#E0E0E0"/>
<path d="M101.391 406.737L91.3217 407.68L90.4322 396.813C90.4122 396.483 90.5124 396.158 90.7116 395.906C90.9108 395.654 91.1933 395.495 91.4996 395.462C91.8048 395.441 92.106 395.547 92.3403 395.758C92.5746 395.969 92.7238 396.269 92.7567 396.596L93.4446 404.966L101.225 404.227C101.534 404.203 101.84 404.309 102.077 404.523C102.314 404.737 102.464 405.043 102.494 405.374C102.505 405.541 102.485 405.71 102.436 405.869C102.387 406.028 102.309 406.175 102.206 406.302C102.104 406.429 101.979 406.532 101.839 406.607C101.699 406.682 101.547 406.726 101.391 406.737Z" fill="#E0E0E0"/>
<path d="M135.893 179.634L97.2529 183.201L96.4583 173.481C96.4002 168.841 97.9773 164.35 100.873 160.908C103.769 157.465 107.77 155.326 112.072 154.92C116.375 154.514 120.661 155.87 124.072 158.717C127.482 161.564 129.765 165.691 130.461 170.27L130.912 175.927L136.498 175.404L136.035 169.748C135.775 166.557 134.932 163.453 133.556 160.612C132.179 157.772 130.294 155.25 128.01 153.192C125.726 151.133 123.087 149.578 120.243 148.615C117.4 147.652 114.408 147.301 111.437 147.58C105.439 148.144 99.895 151.245 96.0249 156.2C94.1087 158.654 92.6611 161.489 91.7647 164.544C90.8684 167.598 90.541 170.812 90.8011 174.003L91.5957 183.787C89.3955 184.25 87.4322 185.57 86.0835 187.494C84.7348 189.418 84.096 191.809 84.2899 194.209L87.0533 228.148C87.1519 229.429 87.485 230.676 88.0337 231.818C88.5823 232.961 89.3356 233.975 90.2502 234.804C91.1649 235.633 92.223 236.259 93.3636 236.647C94.5043 237.035 95.7051 237.178 96.8971 237.066L140.222 233.002C141.414 232.896 142.575 232.538 143.639 231.949C144.702 231.359 145.647 230.55 146.418 229.568C147.189 228.585 147.773 227.449 148.134 226.223C148.495 224.998 148.628 223.708 148.524 222.428L145.76 188.488C145.654 187.211 145.315 185.968 144.762 184.831C144.208 183.694 143.452 182.686 142.535 181.864C141.619 181.041 140.561 180.421 139.421 180.038C138.281 179.656 137.082 179.518 135.893 179.634ZM119.455 205.789L120.404 217.472C120.467 217.942 120.441 218.421 120.327 218.88C120.212 219.339 120.011 219.768 119.737 220.141C119.463 220.513 119.12 220.822 118.731 221.048C118.342 221.273 117.914 221.411 117.473 221.453C117.032 221.495 116.589 221.439 116.169 221.29C115.749 221.141 115.361 220.901 115.031 220.586C114.7 220.271 114.432 219.886 114.245 219.456C114.057 219.025 113.954 218.558 113.94 218.083L112.991 206.388C112.013 205.743 111.249 204.782 110.808 203.643C110.368 202.504 110.273 201.245 110.537 200.045C110.801 198.844 111.412 197.764 112.281 196.958C113.15 196.152 114.233 195.661 115.377 195.555C116.521 195.449 117.667 195.734 118.652 196.368C119.637 197.002 120.41 197.954 120.862 199.088C121.313 200.222 121.421 201.48 121.168 202.683C120.915 203.886 120.316 204.973 119.455 205.789Z" fill="#EBEBEB"/>
<path d="M202.141 199.241L198.239 192.374C196.272 192.675 194.276 192.675 192.309 192.374L188.395 199.215L187.648 198.999C185.112 198.281 182.678 197.197 180.413 195.776L179.749 195.368L181.398 187.928C181.43 187.783 181.488 187.647 181.569 187.527C181.651 187.407 181.753 187.306 181.871 187.229C181.989 187.152 182.12 187.101 182.257 187.079C182.394 187.056 182.533 187.064 182.667 187.1C182.936 187.169 183.168 187.35 183.312 187.603C183.457 187.857 183.502 188.161 183.438 188.45L182.133 194.247C183.819 195.233 185.595 196.027 187.435 196.616L191.254 189.915L191.953 190.043C194.169 190.425 196.427 190.425 198.642 190.043L199.33 189.915L203.149 196.616C204.99 196.032 206.767 195.237 208.451 194.247L206.755 186.603L207.324 186.157C208.869 184.96 210.253 183.541 211.439 181.94C211.604 181.709 211.846 181.556 212.114 181.514C212.381 181.471 212.654 181.541 212.874 181.711C212.99 181.797 213.087 181.907 213.162 182.035C213.236 182.163 213.285 182.306 213.306 182.455C213.327 182.604 213.32 182.756 213.284 182.902C213.249 183.048 213.186 183.184 213.1 183.303C211.934 184.884 210.592 186.305 209.103 187.533L210.846 195.342L210.17 195.75C207.909 197.169 205.479 198.253 202.947 198.973L202.141 199.241ZM178.16 184.284C177.84 183.889 177.52 183.469 177.211 183.01L169.941 184.883L169.55 184.169C168.237 181.732 167.228 179.119 166.549 176.398L166.359 175.595L172.728 171.391C172.448 169.278 172.448 167.134 172.728 165.021L166.359 160.83L166.549 160.014C167.228 157.298 168.237 154.689 169.55 152.256L169.941 151.529L177.211 153.402C178.425 151.696 179.845 150.171 181.433 148.867L180.117 142.955C180.053 142.667 180.098 142.362 180.242 142.109C180.387 141.856 180.619 141.675 180.888 141.605C181.02 141.571 181.158 141.565 181.292 141.589C181.426 141.612 181.555 141.664 181.671 141.741C181.787 141.818 181.887 141.918 181.967 142.037C182.046 142.156 182.102 142.291 182.133 142.433L183.782 149.797L183.212 150.23C181.385 151.642 179.783 153.363 178.468 155.326L178.053 155.938L170.937 154.116C170.015 155.924 169.276 157.833 168.731 159.81L174.958 163.913L174.851 164.652C174.455 167.028 174.455 169.461 174.851 171.837L174.958 172.589L168.731 176.691C169.278 178.663 170.017 180.568 170.937 182.373L178.053 180.551L178.468 181.163C178.837 181.74 179.233 182.297 179.654 182.832C179.837 183.038 179.939 183.311 179.939 183.596C179.939 183.881 179.837 184.154 179.654 184.36C179.553 184.464 179.434 184.545 179.303 184.598C179.171 184.65 179.032 184.674 178.892 184.667C178.752 184.66 178.615 184.622 178.489 184.556C178.364 184.49 178.252 184.398 178.16 184.284ZM220.548 184.908L217.867 184.22C217.599 184.151 217.366 183.97 217.222 183.716C217.077 183.463 217.032 183.159 217.096 182.87C217.161 182.581 217.33 182.332 217.566 182.177C217.801 182.021 218.085 181.973 218.354 182.042L219.54 182.335C220.456 180.529 221.191 178.625 221.734 176.653L215.507 172.55L215.626 171.799C216.022 169.423 216.022 166.99 215.626 164.613L215.507 163.875L221.734 159.772C221.194 157.795 220.458 155.886 219.54 154.077L212.424 155.899L212.02 155.288C210.702 153.328 209.101 151.607 207.276 150.192L206.707 149.759L208.403 142.115C206.719 141.128 204.942 140.338 203.102 139.758L199.247 146.51L198.559 146.383C196.344 146 194.086 146 191.87 146.383L191.17 146.51L187.387 139.783L186.676 140.013C186.422 140.102 186.146 140.082 185.907 139.956C185.667 139.829 185.484 139.607 185.395 139.337C185.346 139.198 185.323 139.049 185.328 138.9C185.334 138.751 185.366 138.605 185.425 138.469C185.483 138.334 185.566 138.213 185.669 138.112C185.772 138.012 185.892 137.935 186.023 137.885C186.545 137.707 187.079 137.541 187.601 137.388L188.348 137.172L192.262 144.026C194.227 143.712 196.226 143.712 198.192 144.026L202.094 137.172L202.853 137.388C205.383 138.114 207.811 139.198 210.075 140.611L210.751 141.032L209.008 148.841C210.599 150.142 212.019 151.668 213.23 153.377L220.5 151.504L220.892 152.23C222.21 154.661 223.219 157.27 223.892 159.989L224.094 160.804L217.713 164.996C218.009 167.107 218.009 169.254 217.713 171.366L224.094 175.57L223.892 176.372C223.219 179.095 222.21 181.709 220.892 184.144L220.548 184.908ZM194.954 179.124C192.37 179.014 189.919 177.862 188.09 175.898C186.261 173.933 185.189 171.301 185.086 168.525C185.016 165.794 185.899 163.134 187.563 161.069C189.227 159.003 191.551 157.682 194.076 157.364C194.224 157.345 194.375 157.359 194.517 157.406C194.66 157.453 194.792 157.532 194.904 157.638C195.016 157.744 195.106 157.875 195.168 158.021C195.229 158.167 195.262 158.325 195.262 158.486C195.261 158.757 195.167 159.018 194.999 159.219C194.831 159.421 194.6 159.55 194.349 159.581C192.591 159.796 190.948 160.626 189.672 161.941C188.396 163.257 187.557 164.986 187.284 166.863C187.011 168.741 187.32 170.662 188.162 172.333C189.005 174.004 190.335 175.332 191.947 176.112C193.56 176.892 195.367 177.082 197.09 176.653C198.813 176.223 200.357 175.198 201.485 173.734C202.613 172.271 203.263 170.45 203.334 168.551C203.406 166.652 202.895 164.781 201.88 163.225C201.734 163.004 201.669 162.733 201.7 162.464C201.731 162.195 201.854 161.948 202.046 161.772C202.157 161.667 202.287 161.588 202.428 161.54C202.57 161.493 202.719 161.479 202.866 161.498C203.013 161.517 203.154 161.57 203.281 161.652C203.407 161.735 203.516 161.845 203.6 161.976C204.679 163.634 205.307 165.582 205.414 167.601C205.522 169.621 205.104 171.633 204.209 173.412C203.313 175.191 201.974 176.668 200.342 177.677C198.709 178.686 196.848 179.187 194.966 179.124H194.954Z" fill="#F0F0F0"/>
<path d="M128.455 292.498L125.929 288.077C124.651 288.281 123.352 288.281 122.074 288.077L119.548 292.498L119.062 292.357C117.425 291.893 115.853 291.195 114.389 290.281L113.962 290.013L115.029 285.198C115.072 285.013 115.18 284.853 115.331 284.753C115.482 284.653 115.663 284.62 115.836 284.663C115.922 284.685 116.004 284.725 116.076 284.782C116.148 284.838 116.209 284.909 116.255 284.991C116.301 285.073 116.332 285.163 116.346 285.258C116.359 285.352 116.355 285.449 116.334 285.542L115.504 289.287C116.592 289.927 117.741 290.44 118.931 290.816L121.398 286.497L121.837 286.574C123.27 286.828 124.733 286.828 126.166 286.574L126.605 286.497L129.084 290.816C130.267 290.432 131.412 289.92 132.499 289.287L131.408 284.369L131.776 284.076C132.773 283.307 133.667 282.394 134.432 281.363C134.537 281.211 134.692 281.11 134.866 281.082C135.039 281.053 135.216 281.099 135.358 281.21C135.43 281.266 135.492 281.336 135.539 281.418C135.587 281.499 135.618 281.59 135.633 281.685C135.647 281.78 135.644 281.877 135.623 281.97C135.602 282.064 135.564 282.152 135.512 282.229C134.756 283.251 133.888 284.171 132.926 284.968L134.112 290.064L133.673 290.332C132.21 291.248 130.638 291.947 129.001 292.408L128.455 292.498ZM112.966 282.828L112.349 282.025L107.605 283.223L107.356 282.764C106.521 281.185 105.886 279.493 105.47 277.732L105.34 277.21L109.455 274.496C109.265 273.123 109.265 271.728 109.455 270.355L105.34 267.642L105.47 267.12C105.9 265.36 106.551 263.671 107.403 262.1L107.653 261.629L112.397 262.903C113.159 261.787 114.048 260.777 115.041 259.896L114.199 256.074C114.178 255.982 114.174 255.886 114.188 255.793C114.202 255.699 114.233 255.609 114.279 255.529C114.325 255.448 114.386 255.378 114.458 255.323C114.53 255.268 114.611 255.229 114.697 255.208C114.87 255.165 115.052 255.198 115.203 255.298C115.353 255.398 115.462 255.558 115.504 255.743L116.571 260.495L116.192 260.788C115.016 261.693 113.987 262.799 113.144 264.062L112.871 264.457L108.293 263.285C107.704 264.453 107.227 265.682 106.87 266.954L110.89 269.604L110.819 270.088C110.697 270.854 110.633 271.629 110.629 272.407C110.633 273.188 110.697 273.968 110.819 274.738L110.89 275.209L106.87 277.859C107.225 279.136 107.702 280.37 108.293 281.541L112.871 280.356L113.144 280.751C113.389 281.129 113.654 281.49 113.938 281.834C114.055 281.967 114.12 282.142 114.12 282.325C114.12 282.507 114.055 282.683 113.938 282.815C113.877 282.888 113.802 282.946 113.719 282.986C113.636 283.027 113.546 283.048 113.455 283.049C113.363 283.05 113.273 283.031 113.189 282.993C113.105 282.955 113.029 282.899 112.966 282.828ZM140.351 283.223L138.619 282.79C138.532 282.767 138.451 282.727 138.379 282.67C138.307 282.614 138.246 282.543 138.2 282.461C138.154 282.38 138.123 282.289 138.109 282.194C138.096 282.1 138.1 282.004 138.121 281.911C138.14 281.818 138.177 281.731 138.228 281.654C138.279 281.577 138.345 281.511 138.42 281.461C138.495 281.412 138.578 281.378 138.665 281.364C138.753 281.349 138.842 281.353 138.927 281.376L139.675 281.567C140.271 280.398 140.748 279.163 141.098 277.885L137.077 275.235L137.148 274.764C137.271 273.993 137.334 273.214 137.338 272.432C137.334 271.655 137.271 270.879 137.148 270.113L137.077 269.629L141.098 266.979C140.746 265.706 140.268 264.476 139.675 263.31L135.097 264.482L134.824 264.087C133.981 262.825 132.951 261.719 131.776 260.813L131.408 260.52L132.499 255.603C131.414 254.965 130.269 254.452 129.084 254.074L126.605 258.393L126.166 258.316C124.733 258.061 123.27 258.061 121.837 258.316L121.398 258.393L118.931 254.074L118.469 254.227C118.304 254.283 118.124 254.269 117.969 254.185C117.814 254.102 117.695 253.957 117.639 253.781C117.607 253.691 117.592 253.596 117.595 253.5C117.598 253.405 117.619 253.311 117.657 253.224C117.694 253.137 117.748 253.059 117.814 252.995C117.88 252.931 117.958 252.882 118.042 252.851L119.062 252.519L119.548 252.392L122.074 256.813C123.352 256.609 124.651 256.609 125.929 256.813L128.455 252.392L128.941 252.519C130.578 252.991 132.149 253.694 133.614 254.609L134.053 254.876L132.867 259.972C133.888 260.821 134.805 261.806 135.595 262.903L140.339 261.629L140.588 262.1C141.441 263.671 142.091 265.36 142.521 267.12L142.651 267.642L138.536 270.355C138.726 271.728 138.726 273.123 138.536 274.496L142.651 277.21L142.521 277.732C142.089 279.491 141.439 281.179 140.588 282.752L140.351 283.223ZM123.818 279.49C122.206 279.371 120.692 278.619 119.564 277.377C118.436 276.135 117.774 274.49 117.703 272.756C117.633 271.023 118.159 269.322 119.182 267.979C120.205 266.636 121.653 265.745 123.248 265.476C123.344 265.465 123.44 265.476 123.531 265.508C123.622 265.539 123.706 265.591 123.777 265.659C123.849 265.728 123.906 265.811 123.946 265.905C123.985 265.998 124.006 266.1 124.007 266.202C124.008 266.379 123.948 266.55 123.839 266.682C123.729 266.813 123.578 266.897 123.414 266.916C122.414 267.039 121.468 267.47 120.691 268.157C119.913 268.845 119.338 269.759 119.033 270.79C118.729 271.821 118.709 272.924 118.975 273.967C119.241 275.011 119.783 275.949 120.534 276.669C121.286 277.388 122.215 277.859 123.21 278.025C124.205 278.19 125.223 278.043 126.142 277.6C127.061 277.158 127.841 276.439 128.388 275.531C128.935 274.623 129.226 273.565 129.226 272.483C129.228 271.333 128.896 270.211 128.277 269.273C128.187 269.128 128.147 268.953 128.167 268.78C128.187 268.607 128.264 268.447 128.384 268.33C128.455 268.261 128.54 268.209 128.631 268.178C128.723 268.147 128.819 268.137 128.915 268.149C129.01 268.161 129.102 268.195 129.184 268.248C129.267 268.301 129.337 268.372 129.392 268.457C130.086 269.529 130.489 270.787 130.557 272.09C130.625 273.394 130.355 274.692 129.778 275.84C129.2 276.989 128.337 277.943 127.285 278.596C126.233 279.25 125.033 279.577 123.818 279.541V279.49Z" fill="#E6E6E6"/>
<path d="M296.5 544.011C423.5 544.011 526.454 537.554 526.454 529.589C526.454 521.624 423.5 515.167 296.5 515.167C169.501 515.167 66.5469 521.624 66.5469 529.589C66.5469 537.554 169.501 544.011 296.5 544.011Z" fill="#F5F5F5"/>
<path d="M431.052 185.787H392.436L365.158 521.168H403.774C409.194 521.055 414.388 518.817 418.378 514.874C422.367 510.932 424.876 505.557 425.431 499.765L449.257 207.178C449.534 204.452 449.267 201.694 448.474 199.087C447.68 196.481 446.379 194.086 444.657 192.062C442.934 190.038 440.83 188.431 438.484 187.349C436.138 186.268 433.605 185.735 431.052 185.787Z" fill="#8EB4E3"/>
<path d="M423.177 185.788H292.48C287.06 185.897 281.865 188.132 277.873 192.072C273.881 196.013 271.37 201.386 270.812 207.178L246.985 499.765C246.711 502.489 246.979 505.245 247.771 507.849C248.564 510.454 249.863 512.847 251.582 514.871C253.302 516.895 255.402 518.503 257.744 519.589C260.086 520.675 262.616 521.213 265.167 521.168H395.852C401.265 521.044 406.449 518.8 410.43 514.859C414.412 510.917 416.916 505.55 417.473 499.765L441.3 207.178C441.575 204.46 441.31 201.709 440.522 199.109C439.733 196.509 438.44 194.118 436.726 192.096C435.013 190.073 432.919 188.465 430.583 187.377C428.247 186.29 425.723 185.748 423.177 185.788Z" fill="#8EB4E3"/>
<path opacity="0.3" d="M423.177 185.788H292.48C287.06 185.897 281.865 188.132 277.873 192.072C273.881 196.013 271.37 201.386 270.812 207.178L246.985 499.765C246.711 502.489 246.979 505.245 247.771 507.849C248.564 510.454 249.863 512.847 251.582 514.871C253.302 516.895 255.402 518.503 257.744 519.589C260.086 520.675 262.616 521.213 265.167 521.168H395.852C401.265 521.044 406.449 518.8 410.43 514.859C414.412 510.917 416.916 505.55 417.473 499.765L441.3 207.178C441.575 204.46 441.31 201.709 440.522 199.109C439.733 196.509 438.44 194.118 436.726 192.096C435.013 190.073 432.919 188.465 430.583 187.377C428.247 186.29 425.723 185.748 423.177 185.788Z" fill="white"/>
<path opacity="0.4" d="M422.619 192.642H388.154C387.126 192.651 386.125 192.991 385.279 193.617C384.434 194.244 383.782 195.129 383.41 196.158C382.051 199.936 379.674 203.194 376.584 205.515C373.493 207.837 369.829 209.116 366.059 209.191H345.731C342.18 209.268 338.715 208.012 335.933 205.64C333.151 203.268 331.227 199.928 330.491 196.196C330.294 195.186 329.776 194.282 329.024 193.64C328.272 192.998 327.335 192.658 326.375 192.68H291.922C288.238 192.75 284.706 194.268 281.994 196.946C279.281 199.625 277.577 203.279 277.204 207.216L253.365 499.803C253.174 501.656 253.353 503.531 253.89 505.303C254.428 507.075 255.31 508.704 256.48 510.081C257.649 511.458 259.079 512.551 260.673 513.287C262.267 514.024 263.988 514.387 265.723 514.352H396.42C400.105 514.279 403.638 512.758 406.35 510.078C409.061 507.397 410.765 503.742 411.139 499.803L434.965 207.216C435.16 205.363 434.984 203.486 434.449 201.711C433.914 199.937 433.033 198.305 431.864 196.926C430.696 195.546 429.267 194.451 427.672 193.712C426.078 192.973 424.355 192.608 422.619 192.642Z" fill="white"/>
<path d="M390.053 351.624H298.589C297.96 351.635 297.336 351.503 296.759 351.235C296.182 350.968 295.664 350.571 295.24 350.073C294.816 349.574 294.496 348.984 294.3 348.342C294.105 347.7 294.038 347.021 294.106 346.35L294.568 340.719C294.704 339.291 295.322 337.966 296.305 336.994C297.289 336.022 298.569 335.471 299.905 335.444H391.381C392.01 335.433 392.634 335.566 393.211 335.833C393.788 336.101 394.306 336.497 394.73 336.996C395.154 337.494 395.474 338.084 395.67 338.726C395.865 339.368 395.932 340.047 395.864 340.719L395.414 346.35C395.275 347.781 394.653 349.107 393.665 350.079C392.677 351.051 391.392 351.601 390.053 351.624Z" fill="white"/>
<path d="M388.084 375.83H296.607C295.979 375.841 295.356 375.709 294.779 375.441C294.202 375.174 293.685 374.777 293.262 374.278C292.839 373.779 292.52 373.189 292.326 372.547C292.132 371.905 292.067 371.226 292.136 370.556L292.587 364.925C292.725 363.498 293.344 362.174 294.327 361.203C295.31 360.232 296.589 359.68 297.924 359.65H389.4C390.029 359.639 390.652 359.772 391.23 360.039C391.807 360.307 392.325 360.703 392.749 361.202C393.173 361.7 393.493 362.29 393.689 362.932C393.884 363.574 393.95 364.253 393.883 364.925L393.421 370.556C393.282 371.982 392.663 373.306 391.681 374.277C390.698 375.248 389.419 375.8 388.084 375.83Z" fill="white"/>
<path opacity="0.1" d="M362.264 198.12C362.114 199.705 361.427 201.176 360.334 202.254C359.241 203.332 357.818 203.941 356.334 203.967C355.637 203.981 354.945 203.835 354.305 203.539C353.664 203.242 353.09 202.803 352.62 202.25C352.149 201.697 351.794 201.042 351.578 200.33C351.362 199.618 351.289 198.864 351.365 198.12C351.516 196.534 352.203 195.063 353.296 193.986C354.389 192.908 355.812 192.298 357.295 192.272C357.992 192.259 358.684 192.405 359.325 192.701C359.965 192.997 360.54 193.436 361.01 193.99C361.48 194.543 361.835 195.197 362.051 195.91C362.268 196.622 362.34 197.375 362.264 198.12Z" fill="black"/>
<path opacity="0.1" d="M359.798 198.12C359.715 198.985 359.339 199.788 358.743 200.377C358.147 200.966 357.37 201.3 356.561 201.318C356.179 201.326 355.801 201.246 355.45 201.084C355.1 200.922 354.785 200.682 354.528 200.379C354.271 200.077 354.077 199.719 353.959 199.329C353.841 198.939 353.802 198.527 353.845 198.12C353.926 197.253 354.3 196.449 354.897 195.859C355.494 195.27 356.272 194.936 357.082 194.922C357.463 194.916 357.841 194.997 358.19 195.16C358.54 195.322 358.853 195.562 359.11 195.865C359.367 196.167 359.561 196.524 359.68 196.913C359.798 197.302 359.839 197.713 359.798 198.12Z" fill="black"/>
<g opacity="0.8">
<path d="M406.526 207.879C406.321 207.882 406.118 207.838 405.93 207.751C405.742 207.663 405.574 207.534 405.436 207.371C405.298 207.209 405.194 207.017 405.13 206.808C405.067 206.599 405.045 206.377 405.067 206.159L405.328 203.025C405.371 202.562 405.572 202.132 405.891 201.817C406.21 201.502 406.626 201.325 407.059 201.318C407.263 201.315 407.465 201.358 407.652 201.445C407.839 201.531 408.006 201.659 408.144 201.821C408.282 201.982 408.386 202.172 408.451 202.38C408.515 202.587 408.538 202.807 408.518 203.025L408.257 206.159C408.214 206.623 408.014 207.054 407.695 207.371C407.376 207.688 406.96 207.868 406.526 207.879Z" fill="white"/>
<path d="M419.287 207.879C419.083 207.882 418.88 207.838 418.692 207.751C418.504 207.663 418.336 207.534 418.198 207.371C418.06 207.209 417.956 207.017 417.892 206.808C417.828 206.599 417.807 206.377 417.829 206.159L418.433 198.808C418.477 198.345 418.677 197.915 418.997 197.6C419.316 197.285 419.732 197.108 420.165 197.101C420.369 197.098 420.57 197.141 420.757 197.228C420.944 197.314 421.112 197.443 421.25 197.604C421.388 197.765 421.492 197.955 421.556 198.163C421.621 198.37 421.644 198.59 421.624 198.808L421.019 206.159C420.976 206.623 420.776 207.054 420.457 207.371C420.138 207.688 419.722 207.869 419.287 207.879Z" fill="white"/>
<path d="M412.906 207.879C412.702 207.882 412.499 207.838 412.311 207.751C412.123 207.663 411.955 207.534 411.817 207.371C411.679 207.209 411.575 207.017 411.511 206.808C411.447 206.599 411.426 206.377 411.448 206.159L411.875 200.923C411.918 200.456 412.12 200.023 412.441 199.706C412.763 199.389 413.182 199.21 413.618 199.203C413.822 199.199 414.025 199.243 414.212 199.331C414.4 199.418 414.567 199.548 414.704 199.71C414.841 199.873 414.944 200.066 415.007 200.275C415.069 200.484 415.089 200.705 415.065 200.923L414.638 206.159C414.595 206.623 414.395 207.054 414.076 207.371C413.757 207.688 413.341 207.869 412.906 207.879Z" fill="white"/>
</g>
<g opacity="0.8">
<path d="M297.259 207.879H289.242C289.127 207.881 289.012 207.857 288.906 207.808C288.8 207.759 288.705 207.687 288.627 207.595C288.55 207.503 288.491 207.394 288.456 207.276C288.421 207.158 288.41 207.033 288.424 206.91L288.791 202.286C288.817 202.023 288.932 201.78 289.113 201.602C289.294 201.423 289.53 201.322 289.776 201.318H297.793C297.908 201.315 298.023 201.339 298.129 201.388C298.235 201.437 298.33 201.51 298.408 201.601C298.485 201.693 298.543 201.802 298.579 201.92C298.614 202.038 298.625 202.163 298.611 202.286L298.232 206.91C298.211 207.173 298.1 207.418 297.92 207.597C297.74 207.776 297.505 207.876 297.259 207.879Z" fill="white"/>
<path d="M300.971 206.617C300.855 206.62 300.74 206.596 300.634 206.547C300.527 206.498 300.432 206.426 300.353 206.334C300.275 206.243 300.215 206.134 300.179 206.016C300.142 205.898 300.129 205.773 300.141 205.649L300.319 203.534C300.342 203.271 300.456 203.026 300.638 202.847C300.82 202.668 301.057 202.568 301.303 202.566C301.419 202.563 301.533 202.587 301.639 202.636C301.745 202.685 301.84 202.758 301.918 202.85C301.995 202.942 302.054 203.05 302.089 203.168C302.124 203.286 302.135 203.411 302.122 203.534L301.956 205.649C301.93 205.912 301.815 206.155 301.634 206.333C301.453 206.512 301.217 206.613 300.971 206.617Z" fill="white"/>
</g>
<path d="M374.982 314.59C390.942 298.178 392.533 272.142 378.537 256.437C364.541 240.732 340.257 241.304 324.298 257.716C308.338 274.127 306.746 300.163 320.743 315.868C334.739 331.574 359.022 331.001 374.982 314.59Z" fill="white"/>
<path d="M349.776 284.586C339.719 284.586 331.215 288.701 330.492 297.632L329.686 307.556H366.131L366.938 297.632C367.661 288.701 359.846 284.586 349.776 284.586Z" fill="#8EB4E3"/>
<path d="M350.107 280.497C354.78 280.497 356.939 276.433 357.342 271.413C357.745 266.393 356.263 262.329 351.59 262.329C346.917 262.329 344.77 266.406 344.355 271.413C343.94 276.42 345.434 280.497 350.107 280.497Z" fill="#8EB4E3"/>
<path d="M385.877 343.19C383.399 343.19 381.299 344.209 381.133 346.413L380.932 348.872H389.933L390.135 346.413C390.301 344.209 388.368 343.19 385.877 343.19Z" fill="#8EB4E3"/>
<path d="M385.96 342.184C387.146 342.184 387.644 341.177 387.751 339.941C387.858 338.706 387.478 337.699 386.328 337.699C385.177 337.699 384.643 338.706 384.537 339.941C384.43 341.177 384.81 342.184 385.96 342.184Z" fill="#8EB4E3"/>
<path d="M358.173 400.036H322.593C321.628 400.055 320.67 399.853 319.784 399.443C318.898 399.033 318.103 398.426 317.452 397.66C316.801 396.895 316.31 395.99 316.01 395.004C315.71 394.019 315.609 392.977 315.714 391.946C315.925 389.755 316.875 387.723 318.384 386.233C319.894 384.743 321.859 383.897 323.909 383.856H359.489C360.453 383.84 361.41 384.043 362.295 384.453C363.181 384.864 363.975 385.471 364.625 386.236C365.276 387.001 365.767 387.906 366.068 388.89C366.368 389.874 366.471 390.916 366.368 391.946C366.159 394.138 365.21 396.172 363.7 397.662C362.19 399.153 360.223 399.998 358.173 400.036Z" fill="#8EB4E3"/>
<path d="M353.868 490.261H315.785C314.764 490.29 313.748 490.083 312.807 489.654C311.867 489.224 311.024 488.582 310.335 487.771C309.646 486.959 309.128 485.998 308.816 484.953C308.504 483.908 308.406 482.802 308.527 481.712L310.958 451.875C311.176 449.56 312.176 447.412 313.769 445.836C315.363 444.261 317.439 443.368 319.604 443.327H357.698C358.717 443.307 359.728 443.521 360.664 443.955C361.6 444.388 362.439 445.03 363.126 445.839C363.812 446.648 364.331 447.604 364.647 448.645C364.962 449.686 365.068 450.787 364.957 451.875L362.525 481.712C362.303 484.027 361.299 486.174 359.705 487.749C358.11 489.323 356.034 490.217 353.868 490.261Z" fill="#8EB4E3"/>
<g opacity="0.6">
<path d="M342.126 459.404C342.188 458.753 342.121 458.095 341.929 457.474C341.737 456.853 341.424 456.283 341.011 455.801C340.599 455.319 340.096 454.937 339.536 454.68C338.975 454.423 338.371 454.296 337.761 454.308C336.464 454.328 335.218 454.858 334.259 455.797C333.3 456.735 332.694 458.019 332.555 459.404C332.479 460.18 332.586 460.963 332.866 461.682C333.146 462.401 333.589 463.033 334.156 463.519L333.326 473.801C333.285 474.19 333.322 474.584 333.435 474.957C333.548 475.33 333.733 475.672 333.979 475.962C334.225 476.251 334.526 476.481 334.861 476.636C335.196 476.79 335.558 476.866 335.923 476.858C336.696 476.841 337.436 476.52 338.004 475.957C338.572 475.394 338.929 474.627 339.007 473.801L339.849 463.519C340.484 463.053 341.017 462.443 341.41 461.732C341.804 461.021 342.048 460.227 342.126 459.404Z" fill="white"/>
</g>
<path d="M358.031 449.544H353.12L354.306 434.778C354.514 432.729 354.313 430.656 353.717 428.696C353.121 426.737 352.144 424.936 350.851 423.413C349.558 421.89 347.978 420.68 346.216 419.863C344.454 419.046 342.551 418.641 340.632 418.675C336.554 418.76 332.646 420.445 329.645 423.411C326.643 426.377 324.755 430.42 324.336 434.778L323.15 449.544H318.24L319.426 434.778C319.979 428.995 322.483 423.628 326.466 419.692C330.449 415.756 335.636 413.523 341.047 413.413C343.594 413.366 346.121 413.902 348.46 414.985C350.799 416.068 352.897 417.673 354.614 419.694C356.332 421.715 357.629 424.105 358.421 426.705C359.212 429.306 359.479 432.058 359.205 434.778L358.031 449.544Z" fill="#8EB4E3"/>
<path d="M386.483 365.804L386.637 364.364C386.669 364.03 386.635 363.693 386.537 363.375C386.439 363.056 386.28 362.764 386.069 362.516C385.859 362.268 385.602 362.071 385.315 361.937C385.029 361.803 384.72 361.736 384.408 361.74C383.743 361.754 383.107 362.029 382.617 362.512C382.128 362.996 381.82 363.654 381.751 364.364L381.632 365.778C381.367 365.786 381.113 365.898 380.919 366.093C380.724 366.287 380.603 366.552 380.577 366.836L380.268 370.658C380.253 370.791 380.264 370.927 380.303 371.055C380.341 371.183 380.404 371.301 380.489 371.401C380.573 371.5 380.677 371.578 380.792 371.63C380.908 371.682 381.033 371.707 381.158 371.702H386.044C386.309 371.697 386.562 371.588 386.757 371.396C386.952 371.203 387.074 370.94 387.1 370.658L387.408 366.836C387.418 366.701 387.402 366.565 387.359 366.437C387.317 366.31 387.25 366.193 387.162 366.096C387.075 365.998 386.969 365.921 386.852 365.871C386.735 365.821 386.609 365.798 386.483 365.804ZM384.265 362.415C384.501 362.412 384.734 362.462 384.95 362.563C385.166 362.663 385.359 362.811 385.518 362.998C385.677 363.184 385.798 363.404 385.872 363.644C385.946 363.884 385.973 364.138 385.949 364.39L385.831 365.804H382.154L382.273 364.39C382.325 363.856 382.555 363.362 382.922 362.998C383.289 362.635 383.766 362.427 384.265 362.415Z" fill="#8EB4E3"/>
<path d="M312.927 367.32L311.219 366.937C311.172 366.927 311.127 366.905 311.088 366.873C311.05 366.842 311.019 366.801 310.997 366.754C310.975 366.708 310.964 366.656 310.963 366.604C310.963 366.552 310.973 366.501 310.994 366.453L311.705 364.644C311.735 364.566 311.738 364.479 311.713 364.399C311.689 364.319 311.639 364.251 311.572 364.206C311.505 364.162 311.426 364.145 311.348 364.157C311.271 364.17 311.2 364.211 311.148 364.275L309.855 365.702C309.824 365.744 309.785 365.778 309.739 365.802C309.694 365.826 309.645 365.838 309.594 365.838C309.544 365.838 309.494 365.826 309.449 365.802C309.404 365.778 309.364 365.744 309.333 365.702L308.278 364.275C308.052 363.969 307.566 364.275 307.649 364.644L308.064 366.453C308.076 366.506 308.078 366.561 308.07 366.615C308.061 366.668 308.042 366.72 308.015 366.765C307.987 366.81 307.95 366.849 307.908 366.879C307.866 366.909 307.818 366.929 307.768 366.937L306.001 367.32C305.621 367.396 305.574 367.969 305.941 368.046L307.649 368.428C307.697 368.438 307.742 368.459 307.78 368.491C307.819 368.523 307.85 368.565 307.871 368.612C307.892 368.659 307.902 368.711 307.9 368.763C307.899 368.815 307.886 368.866 307.863 368.912L307.175 370.734C307.145 370.812 307.142 370.899 307.167 370.979C307.191 371.059 307.241 371.128 307.308 371.172C307.375 371.216 307.454 371.234 307.532 371.221C307.61 371.209 307.681 371.167 307.732 371.103L309.025 369.677C309.058 369.638 309.099 369.607 309.144 369.586C309.188 369.565 309.237 369.554 309.286 369.554C309.335 369.554 309.383 369.565 309.428 369.586C309.473 369.607 309.514 369.638 309.547 369.677L310.602 371.103C310.828 371.409 311.314 371.103 311.219 370.734L310.804 368.925C310.787 368.817 310.809 368.706 310.867 368.616C310.924 368.525 311.012 368.462 311.112 368.441L312.88 368.059C313.247 367.969 313.295 367.396 312.927 367.32Z" fill="#263238"/>
<path d="M324.146 367.32L322.438 366.937C322.39 366.927 322.346 366.905 322.307 366.873C322.269 366.842 322.237 366.801 322.216 366.754C322.194 366.708 322.182 366.656 322.182 366.604C322.181 366.552 322.192 366.501 322.213 366.453L322.924 364.644C322.954 364.566 322.957 364.479 322.932 364.399C322.908 364.319 322.858 364.251 322.791 364.206C322.724 364.162 322.645 364.145 322.567 364.157C322.489 364.17 322.418 364.211 322.367 364.275L321.074 365.702C321.043 365.744 321.003 365.778 320.958 365.802C320.913 365.826 320.863 365.838 320.813 365.838C320.763 365.838 320.713 365.826 320.668 365.802C320.623 365.778 320.583 365.744 320.552 365.702L319.497 364.275C319.271 363.969 318.785 364.275 318.88 364.644L319.295 366.453C319.305 366.507 319.305 366.562 319.295 366.616C319.285 366.67 319.265 366.721 319.236 366.766C319.208 366.811 319.171 366.849 319.128 366.879C319.085 366.908 319.037 366.928 318.987 366.937L317.219 367.32C316.84 367.396 316.793 367.969 317.16 368.046L318.868 368.428C318.916 368.439 318.96 368.46 318.999 368.492C319.037 368.524 319.069 368.565 319.09 368.611C319.112 368.658 319.124 368.709 319.124 368.761C319.125 368.813 319.114 368.865 319.093 368.912L318.382 370.721C318.352 370.799 318.349 370.886 318.374 370.967C318.398 371.047 318.448 371.115 318.515 371.159C318.582 371.204 318.661 371.221 318.739 371.208C318.816 371.196 318.887 371.154 318.939 371.091L320.232 369.664C320.265 369.625 320.306 369.594 320.35 369.573C320.395 369.552 320.444 369.541 320.493 369.541C320.542 369.541 320.59 369.552 320.635 369.573C320.68 369.594 320.72 369.625 320.754 369.664L321.809 371.091C322.035 371.396 322.521 371.091 322.438 370.721L322.023 368.912C322.012 368.859 322.012 368.805 322.021 368.752C322.03 368.699 322.049 368.649 322.077 368.604C322.105 368.559 322.14 368.52 322.182 368.49C322.223 368.46 322.27 368.439 322.319 368.428L324.086 368.046C324.466 367.969 324.513 367.396 324.146 367.32Z" fill="#263238"/>
<path d="M335.366 367.32L333.67 366.938C333.621 366.93 333.575 366.909 333.535 366.878C333.495 366.847 333.463 366.806 333.441 366.758C333.419 366.711 333.408 366.658 333.408 366.605C333.409 366.552 333.422 366.5 333.445 366.453L334.157 364.644C334.202 364.563 334.216 364.466 334.195 364.374C334.174 364.282 334.119 364.203 334.044 364.154C333.968 364.105 333.878 364.09 333.792 364.113C333.707 364.135 333.633 364.194 333.587 364.275L332.306 365.702C332.274 365.744 332.233 365.779 332.187 365.802C332.141 365.826 332.091 365.838 332.04 365.838C331.988 365.838 331.938 365.826 331.892 365.802C331.846 365.779 331.805 365.744 331.773 365.702L330.717 364.275C330.492 363.969 330.006 364.275 330.1 364.644L330.516 366.453C330.526 366.506 330.526 366.561 330.517 366.613C330.508 366.666 330.489 366.717 330.461 366.762C330.434 366.807 330.398 366.846 330.357 366.876C330.315 366.906 330.268 366.927 330.219 366.938L328.452 367.32C328.072 367.396 328.025 367.969 328.393 368.046L330.089 368.428C330.136 368.439 330.181 368.46 330.219 368.492C330.258 368.524 330.289 368.565 330.311 368.611C330.333 368.658 330.344 368.709 330.345 368.761C330.345 368.814 330.335 368.865 330.314 368.912L329.602 370.721C329.557 370.802 329.543 370.9 329.564 370.992C329.585 371.084 329.639 371.163 329.715 371.212C329.79 371.261 329.881 371.276 329.967 371.253C330.052 371.23 330.126 371.172 330.172 371.091L331.452 369.664C331.486 369.625 331.526 369.595 331.571 369.573C331.616 369.552 331.664 369.542 331.713 369.542C331.762 369.542 331.811 369.552 331.856 369.573C331.901 369.595 331.941 369.625 331.974 369.664L333.042 371.091C333.267 371.397 333.753 371.091 333.658 370.721L333.243 368.912C333.226 368.806 333.246 368.697 333.302 368.607C333.357 368.516 333.442 368.453 333.54 368.428L335.307 368.046C335.639 367.969 335.734 367.396 335.366 367.32Z" fill="#263238"/>
<path d="M346.598 367.32L344.89 366.937C344.843 366.927 344.798 366.905 344.759 366.873C344.721 366.842 344.69 366.801 344.668 366.754C344.646 366.708 344.635 366.656 344.634 366.604C344.634 366.552 344.644 366.501 344.665 366.453L345.376 364.644C345.406 364.566 345.409 364.479 345.385 364.399C345.36 364.319 345.31 364.251 345.243 364.206C345.176 364.162 345.097 364.145 345.02 364.157C344.942 364.17 344.871 364.211 344.819 364.275L343.526 365.702C343.495 365.744 343.456 365.778 343.41 365.802C343.365 365.826 343.316 365.838 343.265 365.838C343.215 365.838 343.166 365.826 343.12 365.802C343.075 365.778 343.036 365.744 343.004 365.702L341.949 364.275C341.724 363.969 341.237 364.275 341.32 364.644L341.735 366.453C341.748 366.506 341.749 366.561 341.741 366.615C341.732 366.668 341.713 366.72 341.686 366.765C341.658 366.81 341.622 366.849 341.579 366.879C341.537 366.909 341.489 366.929 341.439 366.937L339.672 367.32C339.292 367.396 339.245 367.969 339.672 368.046L341.38 368.428C341.427 368.438 341.472 368.459 341.511 368.491C341.549 368.523 341.58 368.565 341.601 368.612C341.622 368.659 341.632 368.711 341.631 368.763C341.629 368.815 341.616 368.866 341.593 368.912L340.893 370.721C340.864 370.799 340.861 370.886 340.885 370.967C340.91 371.047 340.96 371.115 341.027 371.159C341.093 371.204 341.173 371.221 341.25 371.208C341.328 371.196 341.399 371.154 341.451 371.091L342.744 369.664C342.777 369.625 342.817 369.594 342.862 369.573C342.907 369.552 342.955 369.541 343.004 369.541C343.053 369.541 343.102 369.552 343.147 369.573C343.192 369.594 343.232 369.625 343.265 369.664L344.321 371.091C344.546 371.396 345.033 371.091 344.938 370.721L344.523 368.912C344.505 368.804 344.528 368.693 344.585 368.603C344.643 368.512 344.731 368.45 344.831 368.428L346.598 368.046C346.918 367.969 346.966 367.396 346.598 367.32Z" fill="#263238"/>
<path d="M357.818 367.32L356.11 366.937C356.062 366.927 356.017 366.905 355.979 366.873C355.94 366.842 355.909 366.801 355.887 366.754C355.866 366.708 355.854 366.656 355.854 366.604C355.853 366.552 355.864 366.501 355.884 366.453L356.596 364.644C356.626 364.566 356.628 364.479 356.604 364.399C356.58 364.319 356.53 364.251 356.463 364.206C356.396 364.162 356.317 364.145 356.239 364.157C356.161 364.17 356.09 364.211 356.039 364.275L354.746 365.702C354.715 365.744 354.675 365.778 354.63 365.802C354.585 365.826 354.535 365.838 354.485 365.838C354.435 365.838 354.385 365.826 354.34 365.802C354.295 365.778 354.255 365.744 354.224 365.702L353.168 364.275C352.943 363.969 352.457 364.275 352.552 364.644L352.967 366.453C352.977 366.507 352.977 366.562 352.967 366.616C352.957 366.67 352.937 366.721 352.908 366.766C352.88 366.811 352.843 366.849 352.8 366.879C352.757 366.908 352.709 366.928 352.659 366.937L350.891 367.32C350.512 367.396 350.464 367.969 350.832 368.046L352.54 368.428C352.587 368.439 352.632 368.46 352.671 368.492C352.709 368.524 352.74 368.565 352.762 368.611C352.784 368.658 352.795 368.709 352.796 368.761C352.796 368.813 352.786 368.865 352.765 368.912L352.054 370.721C352.024 370.799 352.021 370.886 352.046 370.967C352.07 371.047 352.12 371.115 352.187 371.159C352.254 371.204 352.333 371.221 352.411 371.208C352.488 371.196 352.559 371.154 352.611 371.091L353.904 369.664C353.937 369.625 353.977 369.594 354.022 369.573C354.067 369.552 354.116 369.541 354.165 369.541C354.214 369.541 354.262 369.552 354.307 369.573C354.352 369.594 354.392 369.625 354.426 369.664L355.481 371.091C355.707 371.396 356.193 371.091 356.11 370.721L355.695 368.912C355.684 368.859 355.684 368.805 355.693 368.752C355.702 368.699 355.721 368.649 355.749 368.604C355.776 368.559 355.812 368.52 355.854 368.49C355.895 368.46 355.942 368.439 355.991 368.428L357.758 368.046C358.173 367.969 358.173 367.396 357.818 367.32Z" fill="#263238"/>
<path d="M369.036 367.32L367.328 366.937C367.281 366.928 367.236 366.906 367.197 366.874C367.159 366.842 367.128 366.801 367.107 366.754C367.086 366.707 367.076 366.655 367.077 366.603C367.079 366.55 367.092 366.499 367.115 366.453L367.827 364.644C367.849 364.604 367.864 364.56 367.871 364.513C367.877 364.467 367.875 364.42 367.865 364.374C367.854 364.328 367.836 364.286 367.81 364.248C367.784 364.21 367.751 364.178 367.714 364.154C367.676 364.13 367.635 364.113 367.592 364.106C367.549 364.099 367.505 364.102 367.462 364.113C367.42 364.124 367.38 364.144 367.345 364.172C367.31 364.2 367.28 364.235 367.257 364.275L365.976 365.702C365.944 365.744 365.903 365.779 365.857 365.802C365.811 365.826 365.761 365.838 365.709 365.838C365.658 365.838 365.608 365.826 365.562 365.802C365.516 365.779 365.475 365.744 365.443 365.702L364.387 364.275C364.162 363.969 363.675 364.275 363.77 364.644L364.185 366.453C364.196 366.506 364.196 366.561 364.187 366.613C364.178 366.666 364.159 366.717 364.131 366.762C364.104 366.807 364.068 366.846 364.026 366.876C363.985 366.906 363.938 366.927 363.889 366.937L362.122 367.32C361.742 367.396 361.695 367.969 362.063 368.046L363.758 368.428C363.806 368.439 363.851 368.46 363.889 368.492C363.928 368.524 363.959 368.565 363.981 368.611C364.003 368.658 364.014 368.709 364.015 368.761C364.015 368.814 364.005 368.865 363.984 368.912L363.272 370.721C363.227 370.802 363.213 370.9 363.234 370.992C363.255 371.084 363.309 371.163 363.385 371.212C363.46 371.261 363.551 371.276 363.637 371.253C363.722 371.23 363.796 371.172 363.842 371.091L365.122 369.664C365.156 369.625 365.196 369.594 365.241 369.573C365.286 369.552 365.334 369.542 365.383 369.542C365.432 369.542 365.481 369.552 365.526 369.573C365.571 369.594 365.611 369.625 365.644 369.664L366.7 371.091C366.755 371.157 366.83 371.202 366.912 371.217C366.994 371.233 367.078 371.218 367.151 371.175C367.224 371.132 367.281 371.064 367.313 370.981C367.346 370.899 367.351 370.807 367.328 370.721L366.913 368.912C366.895 368.806 366.916 368.697 366.971 368.607C367.027 368.516 367.112 368.453 367.21 368.428L368.977 368.046C369.356 367.969 369.404 367.396 369.036 367.32Z" fill="#263238"/>
<path d="M341.984 340.935H320.921C320.275 340.947 319.655 341.213 319.178 341.682C318.702 342.152 318.402 342.792 318.336 343.483C318.302 343.808 318.333 344.137 318.427 344.448C318.521 344.759 318.677 345.045 318.882 345.287C319.088 345.528 319.339 345.719 319.619 345.848C319.899 345.976 320.201 346.039 320.506 346.031H341.569C342.216 346.019 342.836 345.753 343.312 345.284C343.788 344.815 344.088 344.174 344.155 343.483C344.187 343.158 344.154 342.83 344.059 342.52C343.964 342.21 343.809 341.925 343.604 341.684C343.399 341.443 343.148 341.252 342.869 341.123C342.59 340.994 342.288 340.93 341.984 340.935Z" fill="#263238"/>
<path d="M363.379 340.935H351.151C350.506 340.947 349.888 341.214 349.413 341.683C348.939 342.153 348.642 342.794 348.578 343.483C348.544 343.807 348.575 344.135 348.668 344.445C348.762 344.755 348.916 345.041 349.12 345.282C349.325 345.523 349.574 345.714 349.853 345.844C350.132 345.973 350.433 346.037 350.736 346.031H362.916C363.562 346.019 364.18 345.753 364.654 345.283C365.129 344.813 365.426 344.173 365.49 343.483C365.523 343.163 365.494 342.84 365.403 342.533C365.312 342.227 365.162 341.944 364.963 341.704C364.764 341.463 364.52 341.271 364.247 341.138C363.974 341.006 363.678 340.937 363.379 340.935Z" fill="#263238"/>
<path d="M379.52 456.423C372.075 459.469 365.354 464.256 359.844 470.437C356.498 467.647 352.51 465.885 348.304 465.341L347.747 465.252L347.51 468.259L347.818 468.386C352.43 470.21 356.331 473.659 358.884 478.17L359.287 478.884L359.726 478.119C364.637 469.697 371.569 462.849 379.793 458.296L380.065 458.143L380.22 456.156L379.52 456.423Z" fill="#263238"/>
<path opacity="0.2" d="M273.538 205.585C272.026 208.42 271.096 211.569 270.81 214.822L253.15 431.682H307.801L318.784 386.468L315.166 341.241L326.149 296.027L322.591 250.812L333.573 205.585H273.538Z" fill="black"/>
<path d="M317.788 238.072L328.77 192.845H190.566L179.595 238.072L183.201 283.287L172.23 328.501L175.836 373.728L164.865 418.942H303.058L314.04 373.728L310.423 328.501L321.405 283.287L317.788 238.072Z" fill="#8EB4E3"/>
<path opacity="0.7" d="M317.788 238.072L328.77 192.845H190.566L179.595 238.072L183.201 283.287L172.23 328.501L175.836 373.728L164.865 418.942H303.058L314.04 373.728L310.423 328.501L321.405 283.287L317.788 238.072Z" fill="white"/>
<path opacity="0.5" d="M317.788 238.072H179.596L190.566 192.845H328.771L317.788 238.072Z" fill="white"/>
<path opacity="0.5" d="M310.423 328.501H172.23L183.201 283.287H321.406L310.423 328.501Z" fill="white"/>
<path opacity="0.5" d="M303.058 418.942H164.854L175.836 373.728H314.04L303.058 418.942Z" fill="white"/>
<path opacity="0.2" d="M299.298 256.966C297.88 257.406 296.41 257.621 294.934 257.603C292.933 257.698 290.94 257.26 289.134 256.329C288.808 256.121 288.435 256.011 288.055 256.01C287.707 256.016 287.365 256.112 287.059 256.291H286.988C286.458 256.61 285.892 256.854 285.304 257.017C283.976 257.393 282.608 257.577 281.236 257.565C280.821 257.565 280.417 257.565 280.05 257.565C278.985 257.491 277.93 257.29 276.907 256.966C276.756 256.918 276.601 256.888 276.444 256.877C276.183 256.854 275.921 256.889 275.673 256.981C275.426 257.072 275.199 257.217 275.006 257.407C274.813 257.598 274.659 257.829 274.554 258.086C274.448 258.343 274.393 258.621 274.392 258.902V260.278H220.595C219.607 260.278 218.628 260.488 217.715 260.894C216.802 261.301 215.973 261.897 215.274 262.648C214.576 263.4 214.022 264.292 213.645 265.273C213.268 266.255 213.075 267.306 213.076 268.368V276.509C213.073 277.572 213.265 278.625 213.642 279.608C214.018 280.591 214.572 281.484 215.27 282.237C215.969 282.99 216.799 283.587 217.712 283.994C218.626 284.402 219.606 284.612 220.595 284.612H281.71H282.113C282.766 285.198 283.453 285.784 284.189 286.382C284.924 286.981 285.968 287.809 286.928 288.548C287.256 288.803 287.65 288.94 288.055 288.94C288.46 288.94 288.854 288.803 289.182 288.548C296.867 282.56 301.801 278.433 301.801 267.094V258.941C301.805 258.614 301.736 258.292 301.6 258C301.465 257.708 301.267 257.456 301.022 257.262C300.777 257.069 300.493 256.942 300.194 256.89C299.894 256.839 299.587 256.865 299.298 256.966Z" fill="black"/>
<path d="M280.536 255.806H219.433C215.274 255.806 211.902 259.428 211.902 263.896V272.037C211.902 276.505 215.274 280.127 219.433 280.127H280.536C284.695 280.127 288.067 276.505 288.067 272.037V263.896C288.067 259.428 284.695 255.806 280.536 255.806Z" fill="#8EB4E3"/>
<path d="M293.759 253.118C291.758 253.21 289.767 252.773 287.96 251.844C287.639 251.633 287.269 251.52 286.892 251.52C286.515 251.52 286.146 251.633 285.825 251.844C284.014 252.774 282.019 253.212 280.013 253.118C278.538 253.135 277.067 252.921 275.649 252.481C275.363 252.378 275.059 252.349 274.761 252.398C274.463 252.446 274.18 252.57 273.935 252.759C273.69 252.949 273.491 253.198 273.354 253.486C273.217 253.775 273.146 254.094 273.146 254.418V262.571C273.146 273.923 278.08 278.05 285.766 284.038C286.093 284.293 286.488 284.43 286.892 284.43C287.297 284.43 287.691 284.293 288.019 284.038C295.704 278.05 300.638 273.923 300.638 262.571V254.418C300.637 254.093 300.564 253.774 300.425 253.486C300.287 253.198 300.087 252.949 299.841 252.76C299.596 252.571 299.312 252.447 299.014 252.399C298.715 252.35 298.41 252.379 298.124 252.481C296.706 252.922 295.235 253.136 293.759 253.118Z" fill="#8EB4E3"/>
<path opacity="0.3" d="M293.759 253.118C291.758 253.21 289.767 252.773 287.96 251.844C287.639 251.633 287.269 251.52 286.892 251.52C286.515 251.52 286.146 251.633 285.825 251.844C284.014 252.774 282.019 253.212 280.013 253.118C278.538 253.135 277.067 252.921 275.649 252.481C275.363 252.378 275.059 252.349 274.761 252.398C274.463 252.446 274.18 252.57 273.935 252.759C273.69 252.949 273.491 253.198 273.354 253.486C273.217 253.775 273.146 254.094 273.146 254.418V262.571C273.146 273.923 278.08 278.05 285.766 284.038C286.093 284.293 286.488 284.43 286.892 284.43C287.297 284.43 287.691 284.293 288.019 284.038C295.704 278.05 300.638 273.923 300.638 262.571V254.418C300.637 254.093 300.564 253.774 300.425 253.486C300.287 253.198 300.087 252.949 299.841 252.76C299.596 252.571 299.312 252.447 299.014 252.399C298.715 252.35 298.41 252.379 298.124 252.481C296.706 252.922 295.235 253.136 293.759 253.118Z" fill="white"/>
<path opacity="0.2" d="M285.825 251.819C284.014 252.749 282.019 253.186 280.013 253.093C278.538 253.109 277.067 252.894 275.649 252.456C275.363 252.353 275.059 252.324 274.761 252.372C274.463 252.421 274.18 252.545 273.935 252.734C273.69 252.923 273.491 253.172 273.354 253.461C273.217 253.749 273.146 254.069 273.146 254.392V262.546C273.146 273.897 278.08 278.025 285.766 284.013C286.11 284.281 286.527 284.42 286.952 284.408V251.488C286.554 251.479 286.163 251.594 285.825 251.819Z" fill="white"/>
<path d="M297.911 260.355C293.288 262.3 289.171 265.417 285.909 269.438C283.635 267.637 280.968 266.492 278.165 266.113H277.797V268.062L277.998 268.139C281.117 269.348 283.804 271.575 285.684 274.509L285.98 274.967L286.229 274.471C288.956 269.028 293.108 264.563 298.172 261.629L298.35 261.539V260.265L297.911 260.355Z" fill="#263238"/>
<path d="M326.328 205.573H321.086C320.412 205.586 319.742 205.445 319.123 205.159C318.503 204.872 317.948 204.447 317.493 203.912C317.038 203.376 316.695 202.743 316.487 202.054C316.278 201.365 316.208 200.636 316.283 199.916L316.745 194.285C316.888 192.754 317.548 191.331 318.602 190.289C319.656 189.246 321.029 188.655 322.462 188.628H327.704C328.379 188.613 329.05 188.753 329.671 189.039C330.292 189.324 330.849 189.749 331.305 190.284C331.761 190.82 332.105 191.454 332.314 192.144C332.524 192.834 332.594 193.564 332.519 194.285L332.057 199.916C331.897 201.442 331.229 202.855 330.177 203.895C329.124 204.934 327.757 205.53 326.328 205.573Z" fill="#8EB4E3"/>
<path d="M328.51 194.272L327.371 192.922L324.501 195.75L322.106 192.922L320.742 194.272L323.149 197.101L320.291 199.929L321.43 201.267L324.288 198.438L326.695 201.267L328.047 199.929L325.64 197.101L328.51 194.272Z" fill="white"/>
<path d="M209.175 254.15C212.211 257.705 215.105 261.387 217.987 265.094C220.869 268.801 223.656 272.585 226.431 276.382C226.55 276.547 226.502 276.483 226.526 276.534C226.55 276.585 226.526 276.598 226.526 276.611C226.547 276.658 226.575 276.701 226.609 276.738C226.71 276.893 226.839 277.024 226.987 277.124C227.136 277.225 227.302 277.293 227.475 277.324C227.609 277.344 227.744 277.344 227.878 277.324C227.949 277.33 228.021 277.33 228.092 277.324H228.198C228.258 277.324 228.198 277.324 228.388 277.248L231.353 275.515C235.338 273.248 239.359 271.031 243.51 269.043L246.985 273.668C243.64 276.968 240.153 281.108 236.631 284.14L233.974 286.382C233.809 286.527 233.635 286.659 233.452 286.777C233.251 286.931 233.041 287.072 232.824 287.198C232.394 287.463 231.951 287.702 231.495 287.911C230.577 288.326 229.612 288.613 228.625 288.765C226.63 289.08 224.593 288.861 222.695 288.128C221.73 287.76 220.813 287.259 219.968 286.637C219.541 286.332 219.137 285.975 218.782 285.631C218.58 285.452 218.414 285.249 218.224 285.058L217.75 284.548C214.607 281.083 211.511 277.592 208.475 274.037C205.439 270.483 202.438 266.903 199.568 263.183L209.175 254.15Z" fill="#B55B52"/>
<path d="M241.943 271.846L244.707 262.304L251.989 266.202C251.989 266.202 250.921 273.158 245.632 274.369L241.943 271.846Z" fill="#B55B52"/>
<path d="M247.613 259.667L254.183 261.603L251.977 266.202L244.695 262.304L247.613 259.667Z" fill="#B55B52"/>
<path d="M170.891 256.749C170.108 260.801 169.136 264.814 168.128 268.814C167.119 272.814 166.016 276.776 164.866 280.739L164.439 282.229L164.226 282.968C164.197 283.075 164.157 283.177 164.107 283.274C163.972 283.684 163.896 284.113 163.882 284.548C163.857 285.474 164.097 286.385 164.57 287.16C164.803 287.499 165.061 287.819 165.34 288.115L166.325 289.274L168.27 291.606C169.539 293.186 170.82 294.765 172.03 296.422L167.89 301.518C166.183 300.473 164.546 299.339 162.909 298.218L160.478 296.485L159.292 295.606C158.889 295.3 158.557 295.097 157.904 294.523C155.584 292.399 153.983 289.51 153.35 286.306C153.032 284.673 152.956 282.996 153.125 281.337C153.125 280.93 153.243 280.471 153.303 280.063L153.433 279.299L153.682 277.77C154.346 273.681 155.058 269.604 155.852 265.553C156.647 261.501 157.501 257.463 158.509 253.475L170.891 256.749Z" fill="#B55B52"/>
<path d="M167.973 296.014L172.859 293.326L175.017 302.244C175.017 302.244 171.092 303.862 168.056 301.785L167.973 296.014Z" fill="#B55B52"/>
<path d="M179.62 290.459L179.846 298.664L174.378 302.499L172.48 293.491L179.62 290.459Z" fill="#B55B52"/>
<path d="M195.62 214.631C195.738 215.255 196.153 215.701 196.533 215.625C196.912 215.548 197.138 214.962 197.019 214.351C196.9 213.739 196.485 213.28 196.106 213.357C195.726 213.433 195.501 214.032 195.62 214.631Z" fill="#263238"/>
<path d="M196.094 215.714C197.161 217.491 198.45 219.102 199.925 220.504C199.581 220.901 199.162 221.213 198.694 221.417C198.227 221.622 197.724 221.715 197.22 221.689L196.094 215.714Z" fill="#A02724"/>
<path d="M192.809 211.599C192.74 211.598 192.674 211.576 192.617 211.535C192.56 211.495 192.515 211.438 192.487 211.37C192.46 211.303 192.451 211.229 192.461 211.156C192.472 211.084 192.502 211.016 192.548 210.962C192.919 210.51 193.384 210.16 193.906 209.938C194.427 209.717 194.99 209.631 195.548 209.688C195.594 209.697 195.638 209.716 195.677 209.743C195.716 209.77 195.75 209.806 195.777 209.847C195.803 209.889 195.822 209.935 195.831 209.984C195.841 210.034 195.841 210.084 195.833 210.134C195.826 210.182 195.81 210.229 195.785 210.271C195.761 210.313 195.729 210.35 195.691 210.378C195.654 210.407 195.611 210.427 195.566 210.437C195.521 210.448 195.475 210.448 195.43 210.439C194.987 210.394 194.541 210.462 194.129 210.64C193.716 210.817 193.349 211.098 193.058 211.459C192.994 211.538 192.905 211.588 192.809 211.599Z" fill="#263238"/>
<path d="M178.517 223.511C179.821 229.358 181.138 240.073 176.465 243.958C176.465 243.958 178.291 249.895 190.697 249.895C204.336 249.895 197.22 246.073 197.22 246.073C189.772 244.519 189.962 237.576 191.29 233.027L178.517 223.511Z" fill="#B55B52"/>
<path d="M175.007 245.041C174.201 243.423 173.299 241.563 175.149 240.977C177.189 240.34 190.271 239.155 194.125 240.353C192.939 242.608 194.944 245.449 194.944 245.449L175.007 245.041Z" fill="#263238"/>
<path d="M185.846 518.416H194.397L195.251 499.918H186.688L185.846 518.416Z" fill="#B55B52"/>
<path d="M131.539 515.868L140.209 516.365L145.475 498.134L136.805 497.637L131.539 515.868Z" fill="#B55B52"/>
<path d="M139.948 515.626L131.777 513.728C131.633 513.693 131.483 513.712 131.352 513.781C131.22 513.851 131.115 513.967 131.053 514.11L128.219 520.722C128.149 520.883 128.114 521.058 128.117 521.235C128.121 521.412 128.162 521.586 128.237 521.744C128.313 521.901 128.421 522.038 128.553 522.144C128.686 522.249 128.839 522.321 129.001 522.353C131.86 522.964 133.283 523.104 136.876 523.945C139.082 524.455 144.075 525.767 147.123 526.493C150.171 527.219 151.227 524.06 150.041 523.474C144.704 520.862 142.474 518.556 141.027 516.403C140.768 516.012 140.384 515.735 139.948 515.626Z" fill="#263238"/>
<path d="M193.946 517.486H185.822C185.675 517.488 185.533 517.543 185.419 517.643C185.305 517.742 185.225 517.88 185.193 518.034L183.723 525.13C183.685 525.302 183.684 525.481 183.72 525.653C183.756 525.825 183.828 525.986 183.931 526.124C184.034 526.262 184.165 526.372 184.314 526.447C184.463 526.522 184.626 526.56 184.79 526.557C187.719 526.557 191.906 526.315 195.642 526.315C199.947 526.315 203.659 526.57 208.688 526.57C211.736 526.57 212.59 523.257 211.309 522.952C205.486 521.588 200.742 521.435 195.713 518.11C195.187 517.734 194.577 517.518 193.946 517.486Z" fill="#263238"/>
<path d="M160.965 246.659C154.513 249.959 152.758 269.961 152.758 269.961L168.733 277.885C171.434 272.992 172.905 267.43 173.003 261.743C173.323 251.411 167.571 243.334 160.965 246.659Z" fill="#263238"/>
<path opacity="0.4" d="M169.599 258.991C166.717 263.807 166.99 271.247 167.986 277.528L168.698 277.885C171.395 272.991 172.866 267.43 172.967 261.743C172.967 261.132 172.967 260.469 172.967 259.921L169.599 258.991Z" fill="black"/>
<path d="M205.545 246.175C205.545 246.175 213.468 255.781 205.984 315.226H166.218C165.945 308.665 169.776 276.675 163.846 245.767C168.241 244.859 172.686 244.255 177.153 243.958C182.786 243.614 188.432 243.614 194.065 243.958C197.939 244.38 201.777 245.121 205.545 246.175Z" fill="#8EB4E3"/>
<path opacity="0.6" d="M205.545 246.175C205.545 246.175 213.468 255.781 205.984 315.226H166.218C165.945 308.665 169.776 276.675 163.846 245.767C168.241 244.859 172.686 244.255 177.153 243.958C182.786 243.614 188.432 243.614 194.065 243.958C197.939 244.38 201.777 245.121 205.545 246.175Z" fill="#FAFAFA"/>
<path opacity="0.2" d="M209.02 264.342L208.878 264.202L200.967 259.667C200.161 272.751 205.604 280.955 208.842 284.535C209.248 277.813 209.307 271.072 209.02 264.342Z" fill="black"/>
<path opacity="0.2" d="M195.252 499.918L194.813 509.46H186.25L186.689 499.918H195.252Z" fill="black"/>
<path opacity="0.2" d="M136.806 497.65L145.475 498.134L142.76 507.536L134.09 507.039L136.806 497.65Z" fill="black"/>
<path d="M175.766 217.574C177.675 225.218 178.434 229.817 182.882 233.002C189.5 237.792 197.73 232.288 197.991 224.173C198.217 216.873 195.062 205.573 187.412 204.031C185.723 203.672 183.977 203.784 182.34 204.357C180.703 204.93 179.23 205.944 178.062 207.302C176.893 208.661 176.069 210.318 175.667 212.116C175.265 213.915 175.299 215.794 175.766 217.574Z" fill="#B55B52"/>
<path d="M191.882 315.226C191.882 315.226 183.438 376.263 178.836 399.144C173.737 424.242 146.53 507.052 146.53 507.052L133.211 503.956C133.211 503.956 150.277 436.434 154.559 401.425C156.219 387.755 158.224 365.753 160.762 347.369C163.217 329.533 166.241 315.239 166.241 315.239L191.882 315.226Z" fill="#263238"/>
<path d="M149.722 502.275L147.231 507.447L132.264 503.956L133.521 499.128L149.722 502.275Z" fill="#8EB4E3"/>
<path opacity="0.6" d="M149.722 502.275L147.231 507.447L132.264 503.956L133.521 499.128L149.722 502.275Z" fill="white"/>
<path opacity="0.6" d="M186.545 336.973C176.784 339.024 177.816 378.123 178.99 398.227C181.813 384.009 185.928 356.669 188.739 337.253C188.059 336.894 187.285 336.795 186.545 336.973Z" fill="black"/>
<path d="M205.985 315.226C205.985 315.226 209.958 374.951 209.152 399.31C208.31 424.65 197.126 507.6 197.126 507.6H184.53C184.53 507.6 184.068 426.064 183.51 401.234C182.894 374.097 179.846 315.213 179.846 315.213L205.985 315.226Z" fill="#263238"/>
<path d="M199.546 502.224C199.605 502.224 198.834 507.842 198.834 507.842H183.511L183.096 502.822L199.546 502.224Z" fill="#8EB4E3"/>
<path opacity="0.6" d="M199.546 502.224C199.605 502.224 198.834 507.842 198.834 507.842H183.511L183.096 502.822L199.546 502.224Z" fill="white"/>
<path d="M200.908 257.348C200.908 273.375 208.843 279.974 208.843 279.974L221.782 266.444C218.719 260.946 215.232 255.734 211.357 250.863C203.873 241.652 200.908 247.054 200.908 257.348Z" fill="#263238"/>
<path opacity="0.2" d="M197.492 227.078C197.228 227.881 196.785 228.603 196.202 229.18C195.62 229.757 194.914 230.173 194.147 230.39C193.304 230.575 192.539 231.046 191.964 231.735C191.39 232.423 191.036 233.292 190.957 234.212C192.493 233.661 193.885 232.727 195.021 231.487C196.157 230.247 197.003 228.736 197.492 227.078Z" fill="black"/>
<path d="M194.147 202.349C196.804 198.744 192.712 198.527 192.712 198.527C193.78 194.234 188.988 196.54 188.988 196.54C186.118 192.285 184.493 197.47 184.493 197.47C181.516 193.865 180.935 199.75 180.935 199.75C177.947 195.177 176.429 201.776 176.429 201.776C173.677 197.024 171.993 203.203 171.993 203.203C166.312 201.024 169.004 207.369 169.004 207.369C164.165 207.509 168.055 211.548 168.055 211.548C162.244 211.548 167.367 215.128 167.367 215.128C162.754 218.376 168.553 219.255 168.553 219.255C164.794 225.625 171.258 223.23 171.258 223.23C168.636 229.498 174.436 226.734 174.436 226.734C174.068 232.773 177.306 231.129 178.872 230.008C179.168 231.282 179.737 232.556 180.781 232.658C182.809 232.951 183.153 228.836 183.153 228.836C183.153 228.836 185.027 230.416 186.604 229.562C188.182 228.708 187.589 226.555 187.589 226.555C187.931 226.83 188.347 226.979 188.775 226.979C189.202 226.979 189.618 226.83 189.961 226.555C190.637 225.995 190.637 221.944 189.783 220.517L192.866 219.243C192.866 219.243 195.155 218.899 194.135 215.65C193.52 213.783 193.466 211.755 193.981 209.853C197.468 208.095 194.598 206.031 194.598 206.031C198.642 203.241 194.147 202.349 194.147 202.349Z" fill="#263238"/>
<path d="M187.898 217.854C188.381 219.755 189.436 221.43 190.899 222.619C192.832 224.173 194.279 222.619 194.137 220.287C194.018 218.172 192.856 214.822 190.721 214.185C188.586 213.548 187.388 215.599 187.898 217.854Z" fill="#B55B52"/>
</svg>
