<svg width="589" height="542" viewBox="0 0 589 542" fill="none" xmlns="http://www.w3.org/2000/svg">
<g clip-path="url(#clip0_269_73)">
<path d="M298.752 544.233C452.038 544.233 576.3 478.214 576.3 396.777C576.3 315.339 452.038 249.32 298.752 249.32C145.466 249.32 21.2031 315.339 21.2031 396.777C21.2031 478.214 145.466 544.233 298.752 544.233Z" fill="#F0F0F0"/>
<path d="M452.777 430.586C434.577 420.917 434.577 405.243 452.777 395.573C470.977 385.904 500.486 385.904 518.686 395.573C536.886 405.243 536.886 420.917 518.686 430.586C500.486 440.256 470.977 440.256 452.777 430.586Z" fill="#E0E0E0"/>
<path d="M82.6022 431.931L34.7283 406.5C32.0307 405.069 32.0307 402.738 34.7283 401.308L313.196 253.363C314.709 252.658 316.382 252.29 318.079 252.29C319.775 252.29 321.448 252.658 322.961 253.363L370.847 278.794C373.545 280.225 373.545 282.555 370.847 283.986L92.3796 431.931C90.8641 432.636 89.1894 433.004 87.4909 433.004C85.7924 433.004 84.1177 432.636 82.6022 431.931Z" fill="#E0E0E0"/>
<path d="M254.684 386.598L295.844 364.701C300.084 362.446 302.205 359.498 302.205 356.538C302.205 353.579 302.205 351.27 302.205 351.27L259.514 329.113C258.322 328.404 257.329 327.444 256.616 326.314C255.904 325.184 255.492 323.914 255.415 322.609V275.9L183.557 314.121V360.809C183.639 362.113 184.053 363.381 184.765 364.51C185.477 365.64 186.468 366.6 187.656 367.313L223.986 386.565C232.444 391.107 246.203 391.107 254.684 386.598Z" fill="#8EB4E3"/>
<g opacity="0.6">
<path d="M254.684 386.598L295.844 364.701C300.084 362.446 302.205 359.498 302.205 356.538C302.205 353.579 302.205 351.27 302.205 351.27L259.514 329.113C258.322 328.404 257.329 327.444 256.616 326.314C255.904 325.184 255.492 323.914 255.415 322.609V275.9L183.557 314.121V360.809C183.639 362.113 184.053 363.381 184.765 364.51C185.477 365.64 186.468 366.6 187.656 367.313L223.986 386.565C232.444 391.107 246.203 391.107 254.684 386.598Z" fill="black"/>
</g>
<path opacity="0.3" d="M200.791 369.08V374.327L187.621 367.335C186.433 366.622 185.443 365.662 184.733 364.532C184.023 363.402 183.612 362.134 183.533 360.831V314.122L197.222 306.848C197.504 310.046 197.811 313.352 198.105 316.604L188.481 321.699V358.175C188.557 359.48 188.968 360.75 189.681 361.881C190.394 363.011 191.387 363.97 192.58 364.679L200.791 369.08Z" fill="black"/>
<path d="M188.48 358.186C188.561 359.49 188.975 360.758 189.687 361.888C190.399 363.018 191.39 363.978 192.58 364.69L223.938 381.319C232.42 385.817 246.179 385.828 254.672 381.319L295.902 359.422C304.396 354.912 304.396 347.606 295.902 343.097L264.52 326.468C263.333 325.754 262.345 324.794 261.635 323.664C260.925 322.534 260.513 321.267 260.433 319.964V283.477L188.575 321.699L188.48 358.186Z" fill="#8EB4E3"/>
<path opacity="0.3" d="M188.48 358.186C188.561 359.49 188.975 360.758 189.687 361.888C190.399 363.018 191.39 363.978 192.58 364.69L223.938 381.319C232.42 385.817 246.179 385.828 254.672 381.319L295.902 359.422C304.396 354.912 304.396 347.606 295.902 343.097L264.52 326.468C263.333 325.754 262.345 324.794 261.635 323.664C260.925 322.534 260.513 321.267 260.433 319.964V283.477L188.575 321.699L188.48 358.186Z" fill="black"/>
<path opacity="0.5" d="M272.825 330.924L264.473 326.49C263.286 325.776 262.298 324.815 261.588 323.686C260.878 322.556 260.466 321.289 260.385 319.986V283.477L188.527 321.699V358.186C188.608 359.49 189.022 360.758 189.734 361.888C190.446 363.018 191.437 363.978 192.627 364.69L200.873 369.026L272.825 330.924Z" fill="black"/>
<path d="M302.216 351.281V356.549C302.216 359.509 300.084 362.446 295.855 364.712L254.625 386.598C250.113 388.814 245.074 389.965 239.959 389.947V384.701C245.074 384.718 250.113 383.567 254.625 381.351L295.855 359.444C300.084 357.2 302.216 354.24 302.216 351.281Z" fill="#8EB4E3"/>
<path opacity="0.5" d="M302.216 351.281V356.549C302.216 359.509 300.084 362.446 295.855 364.712L254.625 386.598C250.113 388.814 245.074 389.965 239.959 389.947V384.701C245.074 384.718 250.113 383.567 254.625 381.351L295.855 359.444C300.084 357.2 302.216 354.24 302.216 351.281Z" fill="black"/>
<path d="M73.0362 403.53C74.5897 404.22 76.2976 404.565 78.0225 404.537C79.7474 404.509 81.441 404.108 82.9668 403.367L360.975 255.672C362.465 254.778 363.706 253.572 364.596 252.154C365.487 250.736 366.001 249.145 366.099 247.51V40.5524C366.046 38.9615 365.585 37.4047 364.754 36.0088C363.923 34.613 362.745 33.4175 361.316 32.52C359.765 31.8288 358.058 31.4843 356.334 31.5144C354.611 31.5445 352.919 31.9485 351.398 32.6934L73.3896 180.432C71.9041 181.332 70.6709 182.543 69.7907 183.965C68.9104 185.387 68.4079 186.981 68.3242 188.616V395.541C68.3768 397.119 68.8304 398.663 69.6487 400.05C70.4669 401.438 71.6271 402.63 73.0362 403.53Z" fill="#8EB4E3"/>
<path d="M83.0013 403.356L361.009 255.661C362.502 254.769 363.744 253.564 364.635 252.145C365.525 250.727 366.039 249.135 366.134 247.499V40.5524C366.134 37.5497 363.836 36.3248 361.009 37.8316L83.0013 185.527C81.5099 186.421 80.2687 187.626 79.3784 189.044C78.488 190.462 77.9736 192.054 77.877 193.689V400.636C77.877 403.638 80.1741 404.863 83.0013 403.356Z" fill="#8EB4E3"/>
<path opacity="0.5" d="M83.0013 403.356L361.009 255.661C362.502 254.769 363.744 253.564 364.635 252.145C365.525 250.727 366.039 249.135 366.134 247.499V40.5524C366.134 37.5497 363.836 36.3248 361.009 37.8316L83.0013 185.527C81.5099 186.421 80.2687 187.626 79.3784 189.044C78.488 190.462 77.9736 192.054 77.877 193.689V400.636C77.877 403.638 80.1741 404.863 83.0013 403.356Z" fill="black"/>
<path d="M82.2482 408.733C80.7903 409.319 79.2119 409.606 77.6215 409.576C76.0312 409.546 74.4668 409.2 73.0362 408.56C71.624 407.657 70.4619 406.462 69.6434 405.071C68.825 403.679 68.3731 402.13 68.3242 400.549V381.709L77.9249 386.825V405.665C77.866 408.408 79.7626 409.654 82.2482 408.733Z" fill="#8EB4E3"/>
<path opacity="0.5" d="M82.2482 408.733C80.7903 409.319 79.2119 409.606 77.6215 409.576C76.0312 409.546 74.4668 409.2 73.0362 408.56C71.624 407.657 70.4619 406.462 69.6434 405.071C68.825 403.679 68.3731 402.13 68.3242 400.549V381.709L77.9249 386.825V405.665C77.866 408.408 79.7626 409.654 82.2482 408.733Z" fill="black"/>
<path d="M77.8652 386.825V405.665C77.8652 408.668 80.2212 409.882 82.9895 408.386L360.998 260.691C362.482 259.801 363.719 258.602 364.609 257.192C365.499 255.782 366.017 254.2 366.122 252.572V233.645L77.8652 386.825Z" fill="#8EB4E3"/>
<path opacity="0.3" d="M77.877 386.782V405.665C77.877 408.668 80.233 409.882 83.0013 408.386L361.009 260.691C362.492 259.8 363.726 258.601 364.614 257.191C365.502 255.781 366.018 254.199 366.122 252.572V233.645L77.877 386.782Z" fill="black"/>
<path d="M87.4785 363.14V196.627C87.5334 195.646 87.8394 194.691 88.3716 193.839C88.9039 192.988 89.6473 192.264 90.5413 191.727L353.4 52.032C355.097 51.1323 356.475 51.8586 356.475 53.658V220.258C356.418 221.24 356.109 222.195 355.575 223.047C355.041 223.898 354.296 224.621 353.4 225.158L90.5531 364.82C88.8568 365.72 87.4785 364.983 87.4785 363.14Z" fill="#8EB4E3"/>
<path d="M87.4785 363.14V196.627C87.5334 195.646 87.8394 194.691 88.3716 193.839C88.9039 192.988 89.6473 192.264 90.5413 191.727L353.4 52.032C355.097 51.1323 356.475 51.8586 356.475 53.658V220.258C356.418 221.24 356.109 222.195 355.575 223.047C355.041 223.898 354.296 224.621 353.4 225.158L90.5531 364.82C88.8568 365.72 87.4785 364.983 87.4785 363.14Z" fill="#263238"/>
<path d="M221.994 316.235C220.594 317.073 219.43 318.202 218.595 319.532C217.76 320.862 217.277 322.355 217.188 323.888C217.188 326.707 219.343 327.856 221.994 326.447C223.395 325.608 224.56 324.477 225.395 323.145C226.231 321.813 226.712 320.318 226.8 318.783C226.8 315.964 224.644 314.826 221.994 316.235Z" fill="#8EB4E3"/>
<path opacity="0.7" d="M79.3856 189.028C78.4727 190.44 77.9508 192.037 77.866 193.678V386.825L68.3242 381.709V188.616C68.386 186.969 68.9051 185.365 69.8321 183.955L79.3856 189.028Z" fill="black"/>
<path opacity="0.3" d="M366.076 39.7719C365.711 37.3438 363.578 36.5199 360.999 37.8316L82.9907 185.527C81.4833 186.394 80.2392 187.599 79.3742 189.028L69.7617 183.922C70.6325 182.493 71.8803 181.289 73.39 180.421L351.398 32.7368C352.922 31.9917 354.615 31.5877 356.341 31.5576C358.066 31.5275 359.775 31.872 361.328 32.5633C362.634 33.3821 363.734 34.4494 364.553 35.6931C365.372 36.9367 365.891 38.3277 366.076 39.7719Z" fill="black"/>
<path d="M381.07 65.246C380.657 65.0553 380.196 64.9717 379.735 65.0042C379.274 65.0366 378.832 65.1839 378.455 65.4302L116.138 204.876C115.103 205.506 114.244 206.352 113.63 207.344C113.016 208.336 112.664 209.448 112.604 210.589V376.083C112.567 376.642 112.688 377.2 112.954 377.703C113.22 378.206 113.623 378.638 114.124 378.956C114.701 379.248 117.787 380.896 118.706 381.351C119.031 381.504 119.394 381.574 119.759 381.555C120.123 381.536 120.475 381.428 120.779 381.243L383.038 241.797C384.073 241.167 384.932 240.321 385.546 239.329C386.16 238.337 386.511 237.225 386.572 236.084V69.7337C386.624 69.3134 386.549 68.8878 386.353 68.5049C386.157 68.1219 385.85 67.7967 385.464 67.5657C384.875 67.208 381.73 65.6037 381.07 65.246Z" fill="#8EB4E3"/>
<path d="M120.721 207.217L383.05 67.8258C385.029 66.7418 386.584 67.6307 386.584 69.7337V236.084C386.524 237.225 386.173 238.337 385.559 239.329C384.945 240.321 384.085 241.167 383.05 241.797L120.721 381.243C118.742 382.327 117.188 380.581 117.188 378.479V212.93C117.25 211.79 117.602 210.679 118.216 209.687C118.829 208.695 119.688 207.849 120.721 207.217Z" fill="#FAFAFA"/>
<path d="M384.652 68.4546C385.347 68.4546 385.453 69.2568 385.453 69.7337V236.084C385.39 237.039 385.085 237.968 384.564 238.796C384.043 239.624 383.319 240.328 382.45 240.854L120.156 380.3C119.98 380.405 119.777 380.465 119.567 380.473C118.907 380.473 118.389 379.541 118.389 378.479V212.93C118.446 211.975 118.741 211.045 119.252 210.212C119.763 209.38 120.475 208.666 121.334 208.128L383.639 68.7581C383.943 68.5779 384.292 68.4733 384.652 68.4546ZM384.652 67.3706C384.085 67.3928 383.533 67.5497 383.05 67.8259L120.722 207.217C119.688 207.849 118.829 208.695 118.216 209.687C117.602 210.679 117.25 211.79 117.188 212.93V378.479C117.188 380.148 118.201 381.557 119.544 381.557C119.959 381.55 120.366 381.441 120.722 381.243L383.039 241.797C384.074 241.167 384.933 240.322 385.547 239.329C386.161 238.337 386.512 237.225 386.573 236.084V69.7337C386.573 68.2378 385.772 67.3706 384.594 67.3706H384.652Z" fill="#E0E0E0"/>
<path d="M114.054 378.956C114.443 379.14 117.234 380.603 118.46 381.254C118.02 380.918 117.671 380.492 117.442 380.01C117.213 379.528 117.11 379.004 117.14 378.479V223.738L112.546 221.266V376.083C112.508 376.641 112.627 377.198 112.891 377.701C113.155 378.204 113.555 378.636 114.054 378.956Z" fill="#F0F0F0"/>
<path d="M386.631 69.7012C386.631 67.6199 385.018 66.7744 383.097 67.8259L120.721 207.217C119.688 207.849 118.829 208.695 118.216 209.687C117.602 210.679 117.25 211.79 117.188 212.93V223.77L386.631 80.5412V69.7012Z" fill="#8EB4E3"/>
<g opacity="0.4">
<path d="M383.049 67.8259L120.72 207.207C119.668 207.818 118.8 208.664 118.199 209.667L113.641 207.228C114.24 206.26 115.1 205.45 116.138 204.876L378.455 65.4302C378.831 65.1822 379.272 65.0329 379.733 64.9986C380.194 64.9642 380.656 65.046 381.07 65.2351C381.706 65.6037 384.687 67.1538 385.452 67.5332C385.056 67.398 384.63 67.354 384.211 67.405C383.792 67.456 383.394 67.6005 383.049 67.8259Z" fill="white"/>
</g>
<path opacity="0.15" d="M112.545 221.277V210.534C112.593 209.364 112.971 208.225 113.64 207.228L118.211 209.656C117.551 210.636 117.181 211.757 117.139 212.908V223.748L112.545 221.277Z" fill="black"/>
<path d="M331.313 194.491L174.203 277.959C173.439 278.415 172.803 279.031 172.346 279.756C171.89 280.482 171.626 281.296 171.576 282.133V323.585C171.626 324.422 171.89 325.236 172.346 325.961C172.803 326.686 173.439 327.302 174.203 327.758L178.786 330.186C179.6 330.566 180.5 330.763 181.412 330.763C182.325 330.763 183.225 330.566 184.039 330.186L341.126 246.718C341.89 246.26 342.526 245.642 342.982 244.915C343.439 244.188 343.703 243.372 343.753 242.534V201.071C343.703 200.234 343.439 199.42 342.982 198.695C342.526 197.97 341.89 197.354 341.126 196.898L336.532 194.47C335.721 194.097 334.826 193.904 333.919 193.908C333.013 193.912 332.12 194.112 331.313 194.491Z" fill="#8EB4E3"/>
<path opacity="0.5" d="M343.753 200.703C343.564 199.456 342.469 199.001 341.149 199.705L184.039 283.173C183.264 283.616 182.627 284.236 182.19 284.973L172.354 279.748C172.794 279.023 173.426 278.412 174.191 277.97L331.313 194.502C332.125 194.122 333.023 193.924 333.934 193.924C334.845 193.924 335.743 194.122 336.555 194.502L341.149 196.93C341.85 197.353 342.444 197.908 342.893 198.558C343.342 199.209 343.635 199.94 343.753 200.703Z" fill="white"/>
<path d="M183.592 330.392C182.823 330.671 181.998 330.798 181.172 330.765C180.346 330.731 179.537 330.538 178.797 330.197L174.203 327.769C173.44 327.312 172.805 326.696 172.349 325.971C171.893 325.246 171.628 324.432 171.576 323.596V282.143C171.612 281.297 171.879 280.473 172.354 279.748L182.19 284.973C181.712 285.689 181.444 286.507 181.412 287.347V328.81C181.412 330.186 182.355 330.826 183.592 330.392Z" fill="#263238"/>
<path d="M184.039 283.173L341.149 199.705C342.598 198.936 343.776 199.554 343.776 201.093V242.556C343.726 243.394 343.462 244.21 343.006 244.937C342.549 245.664 341.913 246.282 341.149 246.74L184.062 330.208C182.614 330.978 181.436 330.349 181.436 328.81V287.358C181.483 286.521 181.743 285.707 182.195 284.98C182.648 284.253 183.279 283.634 184.039 283.173Z" fill="#8EB4E3"/>
<path d="M289.659 216.627L174.215 277.97C173.45 278.411 172.818 279.023 172.377 279.748L182.213 284.973C182.651 284.236 183.288 283.616 184.063 283.173L299.507 221.841L289.659 216.627Z" fill="#455A64"/>
<path d="M299.483 221.841L184.039 283.173C183.275 283.632 182.639 284.25 182.182 284.977C181.726 285.704 181.462 286.519 181.412 287.358V328.799C181.412 330.338 182.59 330.967 184.039 330.197L299.483 268.865V221.841Z" fill="#37474F"/>
<path d="M210.662 278.122L270.233 246.48C272.695 245.168 274.698 246.1 274.698 248.561C274.588 249.943 274.125 251.282 273.347 252.468C272.57 253.655 271.499 254.656 270.222 255.39L210.662 287.043C208.2 288.355 206.186 287.423 206.186 284.962C206.297 283.579 206.76 282.239 207.537 281.051C208.315 279.862 209.385 278.859 210.662 278.122Z" fill="#8EB4E3"/>
<path d="M222.866 288.604C222.877 288.593 222.89 288.583 222.906 288.577C222.921 288.571 222.937 288.567 222.954 288.567C222.971 288.567 222.987 288.571 223.002 288.577C223.018 288.583 223.031 288.593 223.042 288.604C223.095 288.678 223.12 288.765 223.113 288.853V295.021C223.114 295.617 223.059 296.212 222.948 296.799C222.851 297.336 222.685 297.86 222.453 298.36C222.242 298.819 221.965 299.249 221.629 299.639C221.297 300.001 220.898 300.306 220.451 300.539C220.1 300.749 219.691 300.862 219.273 300.864C219.113 300.852 218.957 300.811 218.815 300.742C218.674 300.673 218.549 300.578 218.448 300.463C218.19 300.144 218.02 299.772 217.953 299.379C217.841 298.854 217.789 298.32 217.8 297.786V291.607C217.8 291.499 217.824 291.392 217.871 291.292C217.9 291.203 217.962 291.126 218.048 291.076L218.79 290.675C218.814 290.654 218.845 290.643 218.878 290.643C218.911 290.643 218.943 290.654 218.966 290.675C219.021 290.748 219.046 290.836 219.037 290.924V297.016C219.028 297.351 219.064 297.686 219.143 298.013C219.176 298.223 219.274 298.418 219.426 298.577C219.479 298.635 219.546 298.681 219.622 298.711C219.697 298.741 219.779 298.755 219.862 298.75C220.063 298.738 220.258 298.678 220.427 298.577C220.637 298.462 220.827 298.319 220.993 298.154C221.177 297.959 221.327 297.74 221.44 297.504C221.573 297.226 221.672 296.935 221.735 296.637C221.804 296.279 221.835 295.916 221.829 295.553V289.45C221.833 289.341 221.861 289.234 221.911 289.135C221.94 289.046 222.003 288.969 222.088 288.919L222.866 288.604Z" fill="#FAFAFA"/>
<path d="M227.483 294.436C227.489 294.356 227.468 294.277 227.424 294.208C227.396 294.18 227.361 294.159 227.322 294.145C227.283 294.132 227.241 294.128 227.2 294.133C227.055 294.114 226.909 294.114 226.764 294.133L226.081 294.252C225.86 294.302 225.63 294.302 225.41 294.252C225.237 294.201 225.087 294.098 224.985 293.959C224.87 293.783 224.794 293.588 224.762 293.385C224.647 292.804 224.647 292.209 224.762 291.628C224.85 291.296 224.976 290.972 225.139 290.664C225.3 290.356 225.497 290.065 225.728 289.797C225.95 289.541 226.222 289.324 226.529 289.157C226.776 289.018 227.053 288.929 227.341 288.897C227.55 288.877 227.761 288.919 227.942 289.016C228.115 289.113 228.251 289.257 228.331 289.428C228.426 289.63 228.478 289.847 228.484 290.068C228.496 290.177 228.472 290.286 228.413 290.382C228.385 290.471 228.322 290.548 228.237 290.599L227.53 290.978C227.498 290.995 227.461 291.004 227.424 291.004C227.387 291.004 227.35 290.995 227.318 290.978L227.165 290.87C227.104 290.825 227.03 290.799 226.953 290.794C226.801 290.809 226.656 290.858 226.529 290.935C226.344 291.037 226.18 291.169 226.046 291.325C225.903 291.496 225.828 291.706 225.834 291.921C225.817 292.004 225.817 292.088 225.834 292.17C225.856 292.201 225.886 292.227 225.92 292.245C225.955 292.264 225.994 292.276 226.034 292.279C226.163 292.299 226.294 292.299 226.423 292.279L227.082 292.17C227.636 292.073 228.013 292.171 228.26 292.452C228.52 292.854 228.639 293.319 228.602 293.786C228.599 294.108 228.551 294.428 228.461 294.74C228.367 295.078 228.233 295.405 228.06 295.715C227.887 296.036 227.669 296.335 227.412 296.604C227.168 296.868 226.877 297.091 226.552 297.265C226.293 297.418 225.998 297.511 225.692 297.536C225.471 297.543 225.252 297.487 225.068 297.374C224.886 297.259 224.746 297.097 224.667 296.908C224.572 296.702 224.524 296.481 224.526 296.257C224.515 296.145 224.54 296.032 224.597 295.932C224.626 295.843 224.688 295.766 224.773 295.715L225.48 295.336C225.574 295.336 225.645 295.282 225.692 295.336L225.845 295.488C225.877 295.52 225.915 295.546 225.957 295.565C226 295.583 226.046 295.594 226.093 295.596C226.259 295.597 226.42 295.547 226.552 295.455C226.765 295.344 226.956 295.201 227.118 295.032C227.198 294.943 227.265 294.845 227.318 294.74C227.401 294.654 227.458 294.549 227.483 294.436Z" fill="#FAFAFA"/>
<path d="M229.887 291.498C229.885 290.935 229.936 290.373 230.04 289.818C230.139 289.296 230.292 288.784 230.5 288.29C230.673 287.847 230.911 287.427 231.206 287.043C231.453 286.713 231.775 286.436 232.149 286.23C232.422 286.061 232.755 285.995 233.079 286.046C233.367 286.107 233.62 286.266 233.786 286.49C234.008 286.784 234.164 287.116 234.246 287.466C234.359 287.921 234.414 288.387 234.411 288.853V289.526C234.414 289.639 234.386 289.751 234.328 289.851C234.299 289.94 234.237 290.017 234.151 290.068L231.089 291.704C231.081 291.895 231.109 292.086 231.171 292.268C231.217 292.391 231.298 292.5 231.407 292.582C231.503 292.653 231.625 292.688 231.748 292.68C231.891 292.664 232.027 292.62 232.149 292.55C232.327 292.461 232.487 292.343 232.62 292.203C232.741 292.078 232.843 291.94 232.926 291.791C232.977 291.705 233.032 291.622 233.091 291.542C233.142 291.487 233.201 291.439 233.268 291.401L233.998 291.011C234.023 290.992 234.055 290.982 234.087 290.982C234.119 290.982 234.15 290.992 234.175 291.011C234.206 291.045 234.228 291.085 234.241 291.128C234.253 291.171 234.255 291.216 234.246 291.26C234.233 291.471 234.185 291.68 234.104 291.878C234.003 292.178 233.869 292.469 233.704 292.745C233.519 293.062 233.298 293.36 233.044 293.634C232.791 293.913 232.488 294.151 232.149 294.338C231.87 294.506 231.537 294.579 231.206 294.544C230.917 294.48 230.664 294.318 230.5 294.089C230.268 293.76 230.111 293.392 230.04 293.005C229.933 292.509 229.882 292.004 229.887 291.498ZM232.149 288.04C231.968 288.13 231.811 288.256 231.689 288.409C231.559 288.561 231.452 288.729 231.371 288.908C231.289 289.087 231.222 289.272 231.171 289.46C231.13 289.632 231.102 289.806 231.089 289.981L233.162 288.897C233.15 288.747 233.126 288.599 233.091 288.452C233.073 288.321 233.016 288.198 232.926 288.095C232.891 288.048 232.846 288.008 232.793 287.978C232.74 287.949 232.681 287.929 232.62 287.921C232.453 287.908 232.286 287.95 232.149 288.04Z" fill="#FAFAFA"/>
<path d="M238.108 285.016C237.752 285.204 237.47 285.493 237.307 285.84C237.124 286.297 237.04 286.784 237.06 287.271V291.184C237.062 291.296 237.038 291.407 236.989 291.509C236.96 291.599 236.898 291.676 236.813 291.726L236.118 292.095C236.107 292.106 236.093 292.115 236.078 292.122C236.063 292.128 236.046 292.131 236.029 292.131C236.013 292.131 235.996 292.128 235.981 292.122C235.966 292.115 235.952 292.106 235.941 292.095C235.888 292.021 235.863 291.933 235.87 291.845V284.832C235.871 284.72 235.895 284.61 235.941 284.507C235.974 284.419 236.036 284.343 236.118 284.29L236.813 283.921C236.837 283.901 236.868 283.889 236.901 283.889C236.934 283.889 236.965 283.901 236.989 283.921C237.044 283.99 237.069 284.075 237.06 284.16V284.507C237.2 284.216 237.374 283.94 237.578 283.683C237.765 283.445 238.006 283.249 238.285 283.108L238.709 282.881C238.731 282.861 238.761 282.85 238.792 282.85C238.823 282.85 238.852 282.861 238.874 282.881C238.931 282.953 238.96 283.041 238.957 283.13V284.116C238.955 284.229 238.926 284.34 238.874 284.442C238.844 284.528 238.787 284.603 238.709 284.658L238.108 285.016Z" fill="#FAFAFA"/>
<path d="M246.896 284.496C246.907 284.484 246.921 284.475 246.936 284.469C246.952 284.462 246.968 284.459 246.985 284.459C247.001 284.459 247.018 284.462 247.033 284.469C247.048 284.475 247.062 284.484 247.073 284.496C247.126 284.569 247.151 284.657 247.144 284.745V285.829C247.143 285.941 247.119 286.051 247.073 286.154C247.033 286.235 246.972 286.305 246.896 286.36L242.868 288.528C242.844 288.549 242.812 288.56 242.779 288.56C242.747 288.56 242.715 288.549 242.691 288.528C242.638 288.459 242.613 288.374 242.62 288.29V278.534C242.621 278.422 242.645 278.312 242.691 278.209C242.724 278.124 242.786 278.052 242.868 278.003L243.61 277.602C243.634 277.581 243.665 277.57 243.698 277.57C243.731 277.57 243.763 277.581 243.786 277.602C243.839 277.671 243.864 277.755 243.857 277.84V286.089L246.896 284.496Z" fill="#FAFAFA"/>
<path d="M250.514 276.474C250.779 276.305 251.099 276.225 251.421 276.247C251.697 276.267 251.954 276.383 252.14 276.572C252.359 276.804 252.52 277.078 252.611 277.374C252.737 277.758 252.808 278.155 252.823 278.555C252.823 278.642 252.823 278.761 252.823 278.902V279.737C252.823 279.867 252.823 279.986 252.823 280.084C252.8 280.555 252.729 281.023 252.611 281.482C252.502 281.929 252.344 282.365 252.14 282.783C251.953 283.172 251.711 283.536 251.421 283.867C251.173 284.167 250.865 284.421 250.514 284.615C250.241 284.778 249.92 284.858 249.595 284.843C249.323 284.821 249.07 284.705 248.888 284.517C248.662 284.294 248.501 284.022 248.417 283.726C248.291 283.342 248.22 282.945 248.205 282.545C248.205 282.458 248.205 282.349 248.205 282.209V281.374C248.205 281.233 248.205 281.114 248.205 281.027C248.219 280.552 248.286 280.08 248.405 279.618C248.52 279.167 248.682 278.728 248.888 278.306C249.075 277.92 249.313 277.556 249.595 277.222C249.845 276.92 250.157 276.665 250.514 276.474ZM251.621 279.271C251.621 279.031 251.577 278.793 251.492 278.566C251.448 278.428 251.357 278.307 251.233 278.219C251.132 278.157 251.011 278.131 250.891 278.144C250.756 278.167 250.628 278.215 250.514 278.284C250.376 278.354 250.249 278.442 250.137 278.545C250.002 278.674 249.887 278.82 249.795 278.978C249.677 279.175 249.59 279.387 249.536 279.607C249.459 279.884 249.412 280.167 249.395 280.452C249.395 280.539 249.395 280.637 249.395 280.756V281.526C249.395 281.645 249.395 281.742 249.395 281.807C249.406 282.047 249.453 282.284 249.536 282.512C249.579 282.651 249.67 282.772 249.795 282.859C249.844 282.891 249.9 282.913 249.959 282.924C250.018 282.935 250.078 282.935 250.137 282.924C250.271 282.903 250.398 282.859 250.514 282.794C250.65 282.721 250.777 282.634 250.891 282.534C251.022 282.402 251.137 282.256 251.233 282.1C251.346 281.901 251.433 281.69 251.492 281.471C251.569 281.195 251.612 280.911 251.621 280.626C251.628 280.525 251.628 280.423 251.621 280.322V279.564C251.628 279.466 251.628 279.368 251.621 279.271Z" fill="#FAFAFA"/>
<path d="M256.426 282.816C256.577 282.731 256.712 282.625 256.827 282.501C256.968 282.348 257.091 282.181 257.192 282.003C257.309 281.785 257.4 281.556 257.463 281.32C257.535 281.054 257.571 280.781 257.569 280.507V279.954C257.569 280.062 257.451 280.192 257.368 280.344C257.288 280.503 257.193 280.655 257.086 280.799C256.963 280.952 256.829 281.097 256.685 281.233C256.537 281.376 256.367 281.496 256.179 281.591C256.058 281.667 255.921 281.719 255.777 281.745C255.634 281.772 255.486 281.77 255.342 281.742C255.08 281.667 254.855 281.51 254.706 281.298C254.514 281.018 254.375 280.71 254.294 280.387C254.193 279.978 254.138 279.56 254.129 279.141C254.129 279 254.129 278.826 254.129 278.621C254.129 278.415 254.129 278.241 254.129 278.089C254.144 277.613 254.199 277.138 254.294 276.669C254.391 276.208 254.528 275.755 254.706 275.314C254.873 274.932 255.086 274.568 255.342 274.23C255.559 273.932 255.845 273.68 256.179 273.493C256.335 273.407 256.506 273.344 256.685 273.309C256.818 273.286 256.953 273.286 257.086 273.309C257.19 273.336 257.287 273.384 257.368 273.45C257.444 273.503 257.511 273.565 257.569 273.634V273.287C257.569 273.176 257.593 273.065 257.639 272.962C257.672 272.877 257.734 272.805 257.816 272.756L258.511 272.377C258.535 272.356 258.567 272.345 258.599 272.345C258.632 272.345 258.664 272.356 258.688 272.377C258.745 272.449 258.774 272.537 258.77 272.626V279.672C258.802 280.727 258.589 281.777 258.146 282.751C257.798 283.516 257.196 284.161 256.426 284.593C256.163 284.743 255.863 284.829 255.554 284.843C255.31 284.856 255.067 284.799 254.859 284.68C254.66 284.543 254.499 284.365 254.388 284.16C254.273 283.913 254.209 283.648 254.2 283.379C254.189 283.267 254.213 283.154 254.27 283.054C254.299 282.965 254.362 282.888 254.447 282.837L255.071 282.512C255.086 282.498 255.103 282.487 255.122 282.479C255.141 282.471 255.162 282.467 255.183 282.467C255.204 282.467 255.225 282.471 255.244 282.479C255.263 282.487 255.281 282.498 255.295 282.512C255.353 282.568 255.405 282.63 255.448 282.696C255.52 282.813 255.638 282.898 255.778 282.935C255.919 283.032 256.132 282.924 256.426 282.816ZM255.319 277.558C255.319 277.847 255.319 278.129 255.319 278.404C255.285 278.837 255.419 279.267 255.696 279.618C255.8 279.701 255.934 279.747 256.073 279.747C256.211 279.747 256.345 279.701 256.45 279.618C256.791 279.413 257.058 279.119 257.215 278.772C257.43 278.32 257.55 277.835 257.569 277.341C257.569 277.179 257.569 276.984 257.569 276.756C257.569 276.528 257.569 276.333 257.569 276.192C257.593 275.804 257.468 275.42 257.215 275.108C257.111 275.02 256.974 274.971 256.832 274.971C256.691 274.971 256.554 275.02 256.45 275.108C256.114 275.312 255.852 275.603 255.696 275.943C255.454 276.453 255.326 277.002 255.319 277.558Z" fill="#FAFAFA"/>
<path d="M261.515 267.932C261.538 267.915 261.567 267.905 261.597 267.905C261.628 267.905 261.657 267.915 261.68 267.932C261.742 268.002 261.771 268.092 261.762 268.182V269.363C261.763 269.476 261.735 269.587 261.68 269.688C261.647 269.77 261.59 269.841 261.515 269.894L260.726 270.317C260.715 270.329 260.701 270.338 260.686 270.344C260.671 270.351 260.654 270.354 260.637 270.354C260.621 270.354 260.604 270.351 260.589 270.344C260.574 270.338 260.56 270.329 260.549 270.317C260.518 270.285 260.495 270.247 260.481 270.206C260.467 270.165 260.462 270.121 260.467 270.079V268.897C260.466 268.784 260.494 268.673 260.549 268.572C260.582 268.487 260.644 268.415 260.726 268.366L261.515 267.932ZM261.715 278.111C261.716 278.219 261.692 278.326 261.645 278.425C261.607 278.511 261.546 278.585 261.468 278.642L260.761 279.011C260.751 279.022 260.739 279.031 260.724 279.037C260.71 279.044 260.694 279.047 260.679 279.047C260.663 279.047 260.647 279.044 260.633 279.037C260.619 279.031 260.606 279.022 260.596 279.011C260.535 278.941 260.505 278.851 260.514 278.761V271.748C260.513 271.635 260.541 271.524 260.596 271.423C260.629 271.338 260.686 271.264 260.761 271.206L261.468 270.837C261.492 270.817 261.523 270.805 261.556 270.805C261.589 270.805 261.621 270.817 261.645 270.837C261.697 270.907 261.722 270.991 261.715 271.076V278.111Z" fill="#FAFAFA"/>
<path d="M267.912 274.805C267.911 274.916 267.887 275.027 267.841 275.13C267.808 275.215 267.746 275.287 267.664 275.336L266.958 275.715C266.936 275.735 266.906 275.746 266.875 275.746C266.844 275.746 266.815 275.735 266.793 275.715C266.731 275.645 266.702 275.556 266.71 275.466V271.65C266.747 271.2 266.657 270.749 266.451 270.339C266.286 270.068 266.027 270.024 265.662 270.22C265.298 270.445 265.028 270.777 264.896 271.163C264.7 271.674 264.604 272.214 264.613 272.756V276.583C264.613 276.694 264.589 276.805 264.543 276.908C264.514 276.997 264.451 277.074 264.366 277.125L263.671 277.493C263.66 277.505 263.646 277.514 263.631 277.52C263.616 277.527 263.599 277.53 263.583 277.53C263.566 277.53 263.549 277.527 263.534 277.52C263.519 277.514 263.505 277.505 263.494 277.493C263.44 277.424 263.415 277.339 263.424 277.255V270.241C263.422 270.129 263.446 270.019 263.494 269.916C263.523 269.827 263.586 269.75 263.671 269.699L264.366 269.331C264.377 269.319 264.391 269.31 264.406 269.304C264.421 269.297 264.438 269.294 264.454 269.294C264.471 269.294 264.488 269.297 264.503 269.304C264.518 269.31 264.532 269.319 264.543 269.331C264.596 269.404 264.62 269.492 264.613 269.58V269.916C264.768 269.586 264.958 269.27 265.179 268.973C265.373 268.699 265.635 268.472 265.945 268.312C266.213 268.131 266.546 268.054 266.875 268.095C267.006 268.125 267.128 268.18 267.233 268.257C267.339 268.333 267.425 268.43 267.488 268.539C267.659 268.833 267.771 269.152 267.818 269.482C267.881 269.914 267.912 270.348 267.912 270.783V274.805Z" fill="#FAFAFA"/>
<path d="M327.331 243.25L315.893 249.32L317.672 234.556C316.294 233.884 315.422 232.247 315.422 229.895C315.422 225.7 318.202 220.832 321.618 219.055C325.034 217.277 327.803 219.163 327.803 223.391C327.732 225.878 326.961 228.306 325.564 230.437L327.331 243.25Z" fill="#455A64"/>
<path d="M327.343 243.25L317.271 237.905L315.893 249.331L327.343 243.25Z" fill="#37474F"/>
<path d="M321.594 219.022C319.103 220.571 317.245 222.841 316.316 225.472L325.54 230.372C326.936 228.241 327.708 225.813 327.778 223.326C327.802 219.131 325.034 217.212 321.594 219.022Z" fill="#37474F"/>
<path d="M265.993 169.863C262.07 167.782 256.663 168.074 250.679 171.25C238.734 177.603 229.051 193.028 229.051 205.722C229.051 212.095 231.501 216.562 235.436 218.621L243.057 222.697C246.968 224.778 252.375 224.475 258.371 221.299C270.316 214.957 279.999 199.521 279.999 186.827C279.999 180.486 277.573 175.987 273.662 173.96" fill="#8EB4E3"/>
<path d="M258.359 175.337C246.414 181.689 236.73 197.125 236.73 209.808C236.73 222.491 246.414 227.651 258.359 221.299C270.303 214.946 279.998 199.521 279.987 186.827C279.975 174.134 270.292 168.996 258.359 175.337Z" fill="#8EB4E3"/>
<path d="M270.292 203.499V204.952C267.431 209.652 263.326 213.612 258.359 216.464C253.706 218.925 249.5 219.196 246.414 217.624V214.632C246.572 211.519 247.538 208.487 249.231 205.788C250.924 203.089 253.294 200.803 256.144 199.12L259.29 197.451C262.07 195.976 264.779 195.781 266.899 196.919C269.02 198.058 270.292 200.453 270.292 203.499Z" fill="#8EB4E3"/>
<path opacity="0.4" d="M265.992 169.863L273.649 173.96C269.738 171.868 264.331 172.161 258.335 175.337C250.513 179.5 243.657 187.554 239.864 196.182L232.195 192.096C236 183.424 242.797 175.413 250.666 171.25C256.674 168.085 262.081 167.781 265.992 169.863Z" fill="white"/>
<path opacity="0.2" d="M242.786 222.534L235.447 218.621C231.513 216.561 229.062 212.117 229.062 205.721L236.731 209.819C236.778 215.998 239.04 220.399 242.786 222.534Z" fill="black"/>
<path opacity="0.1" d="M232.219 192.096L239.888 196.182C237.923 200.502 236.868 205.126 236.778 209.808L229.109 205.711C229.204 201.032 230.259 196.413 232.219 192.096Z" fill="black"/>
<path d="M255.626 196.768C254.895 196.775 254.175 196.603 253.541 196.269C252.776 195.8 252.163 195.149 251.767 194.386C251.371 193.623 251.207 192.775 251.291 191.933C251.391 189.958 252.004 188.034 253.077 186.321C254.151 184.609 255.655 183.158 257.464 182.09C258.19 181.557 259.075 181.237 260.002 181.174C260.928 181.11 261.855 181.305 262.659 181.734C263.463 182.163 264.108 182.805 264.51 183.576C264.911 184.347 265.05 185.212 264.909 186.058C264.807 188.032 264.193 189.956 263.12 191.668C262.046 193.38 260.543 194.831 258.736 195.9C257.801 196.438 256.728 196.737 255.626 196.768Z" fill="white"/>
<path d="M266.899 196.909C264.779 195.77 262.07 195.966 259.29 197.44L256.144 199.109C253.293 200.793 250.921 203.081 249.228 205.782C247.535 208.483 246.57 211.517 246.414 214.632V217.635C249.5 219.206 253.706 218.935 258.359 216.475C263.326 213.623 267.431 209.663 270.292 204.963V203.51C270.292 200.453 269.067 198.058 266.899 196.909Z" fill="white"/>
<path d="M509.072 384.441C509.072 384.441 510.639 371.779 517.483 361.948C524.327 352.116 533.728 345.991 542.504 345.352C551.28 344.712 558.372 352.148 548.983 357.276C539.594 362.403 522.914 367.584 515.233 386.663L509.072 384.441Z" fill="#8EB4E3"/>
<path opacity="0.1" d="M509.072 384.441C509.072 384.441 510.639 371.779 517.483 361.948C524.327 352.116 533.728 345.991 542.504 345.352C551.28 344.712 558.372 352.148 548.983 357.276C539.594 362.403 522.914 367.584 515.233 386.663L509.072 384.441Z" fill="black"/>
<path d="M511.651 381.145H511.557C511.442 381.102 511.349 381.018 511.301 380.913C511.252 380.807 511.251 380.688 511.298 380.582C520.557 359.606 538.18 350.837 546.214 349.146C546.274 349.133 546.337 349.131 546.398 349.14C546.459 349.15 546.517 349.17 546.57 349.2C546.622 349.231 546.668 349.27 546.704 349.316C546.74 349.363 546.765 349.415 546.779 349.471C546.793 349.526 546.795 349.584 546.785 349.64C546.775 349.696 546.752 349.75 546.72 349.798C546.687 349.847 546.644 349.888 546.594 349.922C546.543 349.955 546.486 349.978 546.426 349.991C538.557 351.66 521.276 360.267 512.17 380.918C512.124 381.004 512.048 381.074 511.954 381.115C511.86 381.156 511.753 381.167 511.651 381.145Z" fill="white"/>
<path d="M558.514 381.395C557.725 383.042 555.769 383.909 553.955 384.581C552.141 385.254 550.162 385.98 549.172 387.541C547.193 390.684 550.445 395.129 548.324 398.175C547.825 398.788 547.196 399.302 546.475 399.686C545.755 400.07 544.957 400.315 544.131 400.408C542.776 400.636 541.398 400.636 540.031 400.744C539.377 400.736 538.723 400.689 538.076 400.603C536.172 400.212 534.182 400.406 532.409 401.156C529.688 402.565 528.875 405.719 527.203 408.158C526.181 409.595 524.834 410.811 523.254 411.724C521.674 412.637 519.899 413.225 518.05 413.448C516.872 413.589 514.516 413.795 513.338 413.156C513.245 413.114 513.158 413.063 513.078 413.004C512.902 412.831 512.69 412.603 512.595 412.484C512.589 412.459 512.589 412.433 512.595 412.408C512.113 410.771 512.902 409.08 512.937 407.389V407.085C512.855 405.123 512.796 403.172 512.749 401.221C512.646 397.608 512.607 393.994 512.631 390.381C512.631 388.039 512.348 385.481 513.432 383.281C514.61 380.853 517.578 380.798 518.698 378.424C519.145 377.47 519.381 376.462 519.817 375.498C520.49 374.095 521.569 372.889 522.936 372.012C524.303 371.135 525.905 370.619 527.568 370.522C532.739 370.284 537.369 374.132 542.54 373.774C543.871 373.676 545.179 373.297 546.498 373.08C550.68 372.354 555.522 373.449 557.878 376.712C558.395 377.384 558.723 378.163 558.834 378.98C558.945 379.797 558.835 380.626 558.514 381.395Z" fill="#8EB4E3"/>
<path d="M512.077 404.896C511.965 404.865 511.871 404.796 511.814 404.703C511.757 404.61 511.741 404.5 511.77 404.397C518.909 379.747 547.11 376.213 553.742 376.625C553.801 376.628 553.858 376.641 553.91 376.665C553.963 376.688 554.01 376.721 554.048 376.761C554.087 376.802 554.116 376.849 554.134 376.9C554.153 376.951 554.16 377.005 554.155 377.059C554.143 377.164 554.087 377.261 553.999 377.33C553.912 377.398 553.798 377.433 553.683 377.427C547.216 377.004 519.604 380.484 512.618 404.614C512.585 404.716 512.511 404.803 512.409 404.856C512.308 404.908 512.189 404.923 512.077 404.896Z" fill="white"/>
<path d="M543.446 392.408C543.357 392.397 543.274 392.358 543.211 392.3C540.604 390.22 537.53 388.696 534.208 387.836C530.887 386.976 527.401 386.801 523.998 387.324C523.883 387.334 523.768 387.304 523.677 387.239C523.585 387.175 523.523 387.082 523.503 386.977C523.486 386.871 523.514 386.763 523.583 386.676C523.651 386.589 523.753 386.53 523.868 386.511C527.417 385.967 531.053 386.153 534.516 387.054C537.978 387.956 541.18 389.551 543.894 391.725C543.936 391.762 543.969 391.807 543.991 391.856C544.014 391.906 544.026 391.959 544.026 392.012C544.026 392.066 544.014 392.119 543.991 392.168C543.969 392.218 543.936 392.262 543.894 392.3C543.841 392.358 543.769 392.4 543.689 392.419C543.609 392.439 543.524 392.435 543.446 392.408Z" fill="white"/>
<path d="M444.248 86.72L447.994 88.0425V80.4545C447.994 74.4274 453.212 72.9857 458.879 75.9992C464.557 79.0127 469.151 86.3297 469.151 92.3568V93.4408C469.94 93.2188 470.774 93.1639 471.59 93.2803C472.406 93.3967 473.183 93.6813 473.863 94.1129C476.014 95.4038 477.805 97.1437 479.088 99.1911C480.371 101.239 481.112 103.536 481.249 105.896V106.395L486.479 109.17C487.894 110.02 489.072 111.164 489.917 112.511C490.762 113.857 491.251 115.368 491.344 116.92C491.344 119.782 489.165 120.942 486.479 119.511L444.248 97.0613C442.832 96.2134 441.654 95.0691 440.81 93.722C439.967 92.375 439.482 90.8634 439.395 89.3107C439.395 86.4598 441.55 85.2999 444.248 86.72Z" fill="#E6E6E6"/>
<path d="M494.418 80.7146L501.215 84.3244C501.178 84.051 501.158 83.7759 501.156 83.5005V81.6902C501.156 78.4382 503.607 77.1591 506.646 78.7743C507.952 79.5101 509.069 80.4975 509.921 81.6685C510.415 77.6144 513.879 76.1076 518.072 78.3298C520.469 79.7647 522.464 81.699 523.897 83.976C525.33 86.2529 526.159 88.8084 526.318 91.4354V94.1454C526.349 95.2282 526.111 96.3032 525.623 97.289L531.278 100.281C532.159 100.819 532.891 101.539 533.415 102.384C533.938 103.23 534.239 104.176 534.294 105.148C534.294 106.937 532.927 107.663 531.242 106.774L494.418 87.262C493.528 86.728 492.787 86.0077 492.257 85.1599C491.726 84.3121 491.422 83.3609 491.367 82.384C491.367 80.552 492.734 79.8257 494.418 80.7146Z" fill="#E6E6E6"/>
<path d="M468.102 245.233C463.154 252.93 458.395 259.618 455.05 262.827C448.7 265.537 433.787 269.721 427.956 270.415C426.932 270.535 425.895 270.311 425.034 269.786C422.737 268.398 420.958 268.171 418.544 267.401C416.647 266.805 415.846 265.97 415.493 266.317C415.127 266.711 414.944 267.22 414.981 267.737C415.019 268.253 415.274 268.736 415.693 269.081C416.599 269.873 417.603 270.565 418.685 271.141C416.098 271.731 413.4 271.776 410.792 271.271C405.739 270.046 403.359 272.279 406.775 277.331C407.953 279.13 412.807 282.024 422.561 281.244C426.04 281.071 429.506 280.709 432.939 280.16C442.292 278.317 452.694 276.539 459.09 274.74C461.47 273.879 463.599 272.521 465.31 270.772C476.065 259.488 479.635 251.445 484.347 244.138L483.946 232.214C476.313 231.976 472.237 238.794 468.102 245.233Z" fill="#FFA8A7"/>
<path d="M485.253 231.976C483.04 231.69 480.783 231.965 478.728 232.774C476.672 233.582 474.896 234.892 473.591 236.561C468.361 242.729 459.102 257.537 459.102 257.537C459.102 257.537 462.129 264.962 470.304 266.209L483.439 249.884C483.439 249.884 489.659 238.545 485.253 231.976Z" fill="#455A64"/>
<path d="M513.656 398.413H505.092V412.462H513.656V398.413Z" fill="#FFA8A7"/>
<path d="M483.971 397.665L475.418 397.947L474.982 383.075L483.971 382.793V397.665Z" fill="#FFA8A7"/>
<path d="M514.858 276.799C514.858 284.626 513.609 347.682 513.609 347.682C513.797 349.937 515.965 354.099 515.529 362.761C514.881 374.522 514.021 405.438 514.021 405.438C512.551 406.13 510.929 406.505 509.278 406.535C507.627 406.565 505.99 406.249 504.491 405.611C504.491 405.611 497.541 362.251 496.01 350.641C494.667 340.463 491.227 306.772 491.227 306.772L486.597 346.598C487.579 350.871 487.935 355.246 487.658 359.606C487.257 365.026 484.501 393.08 484.501 393.08C483.021 393.883 481.362 394.366 479.65 394.492C477.938 394.618 476.216 394.383 474.617 393.806C474.617 393.806 469.74 351.53 469.646 346.566C469.528 340.929 472.497 276.734 472.497 276.734L514.858 276.799Z" fill="#37474F"/>
<path d="M505.092 408.408V407.237C504.268 407.573 502.371 414.532 498.967 417.503C496.269 419.866 492.594 422.587 491.651 425.221C490.709 427.855 496.776 429.47 499.308 429.047C502.23 428.549 507.319 426.565 508.591 424.711C509.863 422.858 510.464 420.169 511.501 418.825C512.537 417.481 514.929 415.985 515.482 414.424C515.655 412.964 515.49 411.486 514.999 410.088C514.599 408.635 514.175 407.042 513.656 407.183V408.072C512.449 408.984 510.93 409.475 509.368 409.459C508.12 409.557 505.08 409.318 505.092 408.408Z" fill="#263238"/>
<path d="M475.324 395.411C474.877 395.411 474.512 396.029 473.534 397.048C472.08 398.455 470.38 399.627 468.504 400.516C465.3 402.056 459.08 404.419 456.241 405.644C454.474 406.402 454.556 408.44 456.382 409.6C458.208 410.76 462.602 411.595 467.879 410.467C470.754 409.85 474.5 407.302 476.879 407.443C479.259 407.584 483.676 407.541 485.432 406.359C487.187 405.177 486.48 402.728 485.985 400.614C485.443 398.294 484.807 394.684 483.971 394.847V395.66C482.946 397.156 477.633 397.763 475.372 396.668L475.324 395.411Z" fill="#263238"/>
<path d="M491.226 306.772C486.771 305.43 482.698 303.189 479.305 300.214C479.305 300.214 481.661 304.344 488.446 308.192L486.985 343.758L491.226 306.772Z" fill="#263238"/>
<path d="M510.074 233.125C510.074 233.125 517.142 234.621 516.636 246.371L515.163 265.07V293.146C508.873 299.715 481.001 299.238 471.4 292.626C471.4 292.626 472.484 259.401 473.132 246.61C473.591 237.526 475.865 232.952 485.572 231.954L497.505 232.431L510.074 233.125Z" fill="#8EB4E3"/>
<path d="M501.075 208.713C501.116 210.286 500.817 211.851 500.198 213.318C499.578 214.785 498.649 216.124 497.464 217.259C496.279 218.393 494.862 219.301 493.294 219.929C491.726 220.557 490.039 220.894 488.329 220.919C481.261 220.919 477.114 215.304 475.583 208.713C472.756 196.648 481.285 196.497 488.329 196.497C491.779 196.562 495.06 197.886 497.451 200.177C499.841 202.468 501.144 205.538 501.075 208.713Z" fill="#263238"/>
<path d="M507.577 213.646C507.577 213.646 505.622 222.448 504.833 223.9C504.336 224.774 503.492 225.438 502.477 225.754L502.618 219.564L507.577 213.646Z" fill="#263238"/>
<path d="M505.116 201.039C505.116 201.039 506.518 200.713 508.014 202.86C509.286 204.692 509.58 208.811 507.578 213.7L503.891 214.112L505.116 201.039Z" fill="#263238"/>
<path d="M506.471 202.827L510.994 202.903C511.025 202.634 510.995 202.362 510.907 202.104C510.818 201.846 510.672 201.608 510.479 201.404C510.285 201.201 510.048 201.036 509.782 200.921C509.516 200.806 509.227 200.743 508.933 200.735C508.314 200.743 507.721 200.961 507.267 201.348C506.812 201.734 506.529 202.261 506.471 202.827Z" fill="#263238"/>
<path d="M507.023 201.841L510.368 198.881C510.175 198.672 509.938 198.502 509.67 198.382C509.402 198.262 509.11 198.194 508.812 198.183C508.514 198.171 508.217 198.217 507.94 198.317C507.662 198.417 507.41 198.568 507.199 198.762C506.756 199.161 506.491 199.7 506.459 200.27C506.426 200.84 506.627 201.401 507.023 201.841Z" fill="#263238"/>
<path d="M502.783 214.057C503.525 214.48 504.573 213.125 505.492 212.204C506.411 211.282 509.262 210.437 510.746 213.429C512.23 216.421 509.698 219.38 507.577 220.356C503.772 222.09 502.571 219.564 502.571 219.564L502.253 233.504C496.905 241.092 484.771 240.854 489.142 233.136V228.897C487.344 229.172 485.518 229.26 483.699 229.158C480.731 228.724 478.869 226.48 477.962 223.402C476.525 218.459 475.972 214.469 477.197 204.746C478.54 194.101 491.474 193.982 498.401 198.242C505.327 202.502 502.783 214.057 502.783 214.057Z" fill="#FFA8A7"/>
<path d="M486.668 203.087C489.754 202.806 492.805 202.22 495.903 202.003C496.571 201.929 497.248 201.958 497.906 202.09C500.262 202.686 499.979 205.223 500.356 206.99C501.004 210.047 501.534 215.217 502.783 215.239C503.16 215.239 504.573 212.995 505.492 212.193C505.997 211.502 506.283 210.695 506.317 209.862C506.552 208.605 506.67 207.315 506.776 206.036C506.87 204.952 506.988 203.868 506.988 202.784C507.042 201.559 506.935 200.332 506.67 199.131C506.375 198.109 505.808 197.17 505.021 196.399L504.785 196.161C503.232 194.667 501.348 193.498 499.26 192.735C496.257 191.7 493.107 191.068 489.907 190.86C486.712 190.652 483.531 190.29 480.377 189.776C480.196 189.727 480.004 189.727 479.823 189.776C479.695 189.841 479.587 189.935 479.509 190.048C479.431 190.162 479.385 190.292 479.376 190.426C479.247 191.1 479.327 191.793 479.609 192.426C479.89 193.06 480.361 193.606 480.966 194.003C478.834 194.155 476.384 193.136 474.334 192.616C474.168 192.551 473.99 192.518 473.81 192.518C473.63 192.518 473.451 192.551 473.285 192.616C473.08 192.748 472.933 192.945 472.873 193.169C472.724 193.678 472.704 194.212 472.814 194.73C473.002 196.299 473.636 197.794 474.652 199.066C476.24 200.968 478.483 202.317 481.013 202.892C482.876 203.223 484.783 203.289 486.668 203.087Z" fill="#263238"/>
<path d="M489.152 228.897C489.152 228.897 495.773 227.618 498.082 226.437C499.457 225.744 500.574 224.687 501.286 223.402C500.938 224.693 500.318 225.908 499.46 226.979C497.775 229.06 489.152 230.578 489.152 230.578V228.897Z" fill="#F28F8F"/>
<path d="M490.743 212.464C490.73 212.799 490.862 213.124 491.109 213.37C491.356 213.616 491.699 213.762 492.062 213.776C492.351 213.797 492.64 213.739 492.892 213.607C493.143 213.475 493.346 213.276 493.472 213.036C493.599 212.797 493.644 212.528 493.602 212.264C493.559 212 493.432 211.755 493.235 211.559C493.038 211.364 492.782 211.227 492.5 211.168C492.217 211.109 491.922 211.13 491.653 211.227C491.383 211.325 491.152 211.496 490.99 211.716C490.828 211.937 490.742 212.198 490.743 212.464Z" fill="#263238"/>
<path d="M492.863 207.207L495.702 208.713C495.909 208.342 495.956 207.912 495.833 207.511C495.711 207.109 495.429 206.764 495.043 206.545C494.854 206.448 494.646 206.388 494.431 206.369C494.216 206.35 494 206.372 493.795 206.434C493.59 206.496 493.401 206.597 493.241 206.73C493.08 206.863 492.952 207.025 492.863 207.207Z" fill="#263238"/>
<path d="M489.742 221.255L486.715 222.339C486.776 222.53 486.879 222.708 487.017 222.861C487.156 223.014 487.327 223.139 487.52 223.228C487.714 223.318 487.925 223.37 488.141 223.381C488.357 223.392 488.573 223.362 488.776 223.293C489.188 223.13 489.518 222.828 489.697 222.45C489.876 222.071 489.893 221.644 489.742 221.255Z" fill="#F28F8F"/>
<path d="M478.564 208.323L481.155 206.415C481.039 206.249 480.886 206.107 480.707 205.998C480.527 205.889 480.324 205.817 480.112 205.785C479.9 205.754 479.683 205.763 479.475 205.814C479.267 205.865 479.073 205.955 478.905 206.079C478.559 206.349 478.333 206.727 478.27 207.141C478.207 207.555 478.311 207.976 478.564 208.323Z" fill="#263238"/>
<path d="M479.706 212.106C479.727 212.343 479.822 212.57 479.98 212.758C480.139 212.946 480.353 213.088 480.597 213.166C480.842 213.244 481.105 213.255 481.356 213.197C481.607 213.139 481.834 213.016 482.01 212.841C482.186 212.666 482.302 212.449 482.346 212.214C482.389 211.979 482.357 211.738 482.254 211.52C482.151 211.302 481.981 211.116 481.765 210.985C481.549 210.855 481.296 210.785 481.038 210.784C480.855 210.789 480.676 210.828 480.511 210.898C480.345 210.967 480.196 211.067 480.072 211.19C479.948 211.312 479.852 211.457 479.79 211.614C479.727 211.772 479.698 211.939 479.706 212.106Z" fill="#263238"/>
<path d="M486.809 211.087L486.656 218.795L481.896 217.797L486.809 211.087Z" fill="#F28F8F"/>
<path d="M373.791 275.64L381.177 271.715L384.099 268.453L376.724 272.377L373.791 275.64Z" fill="#8EB4E3"/>
<path opacity="0.4" d="M373.791 275.64L381.177 271.715L384.099 268.453L376.724 272.377L373.791 275.64Z" fill="black"/>
<path d="M393.877 286.306L401.263 282.382L407.424 277.363L400.05 281.276L393.877 286.306Z" fill="#8EB4E3"/>
<path opacity="0.4" d="M393.877 286.306L401.263 282.382L407.424 277.363L400.05 281.276L393.877 286.306Z" fill="black"/>
<path d="M456.617 299.845C458.363 301.999 459.42 304.56 459.668 307.238C457.929 305.08 456.873 302.521 456.617 299.845ZM473.78 300.051C471.294 284.496 462.212 269.114 451.398 263.358C446.203 260.594 441.397 260.496 437.545 262.566L430.595 266.252L430.206 266.469C429.896 266.626 429.597 266.799 429.311 266.989C428.74 267.351 428.204 267.757 427.708 268.203L427.473 268.409C427.261 268.604 427.037 268.832 426.837 269.049C426.636 269.266 426.33 269.602 426.095 269.894C425.595 270.5 425.142 271.137 424.74 271.802C424.528 272.138 424.328 272.496 424.139 272.886L363.437 240.648L356.062 244.561V248.897L356.687 249.222L357.276 249.537V250.404L356.098 251.044V253.558L365.015 270.902L373.827 275.596L376.76 272.344L384.535 276.626L388.999 283.661L393.923 286.274L400.084 281.244L407.647 285.265L410.192 294.924L422.902 301.688C423.53 304.146 424.317 306.568 425.258 308.94C425.341 309.178 425.447 309.428 425.553 309.699C429.77 319.888 436.473 328.615 444.036 332.636C444.942 333.131 445.892 333.555 446.875 333.904C447.394 334.095 447.925 334.257 448.465 334.392C448.936 334.508 449.407 334.605 449.878 334.685C451.366 334.935 452.891 334.935 454.378 334.685L454.991 334.544C455.284 334.49 455.571 334.414 455.851 334.316L456.511 334.078C456.744 334 456.969 333.902 457.182 333.785C457.4 333.699 457.612 333.601 457.818 333.493L458.124 333.319C458.18 333.302 458.232 333.277 458.278 333.243C459.962 332.354 464.109 330.143 465.24 329.558C470.847 326.566 474.475 318.999 474.475 308.3C474.466 305.539 474.233 302.781 473.78 300.051Z" fill="#8EB4E3"/>
<path d="M454.461 312.972C451.539 311.422 449.183 306.826 449.183 302.707C449.183 298.588 451.539 296.496 454.461 298.035C457.382 299.574 459.727 304.181 459.727 308.311C459.727 312.441 457.371 314.523 454.461 312.972ZM466.394 303.964C463.92 288.42 454.838 273.027 444.012 267.282C438.994 264.615 434.352 264.42 430.583 266.252L430.194 266.469C429.885 266.626 429.586 266.799 429.299 266.989C428.728 267.351 428.192 267.757 427.697 268.203L427.461 268.409C427.249 268.604 427.025 268.832 426.825 269.049C426.625 269.266 426.318 269.602 426.083 269.894C425.583 270.5 425.13 271.138 424.728 271.802C424.516 272.138 424.316 272.496 424.127 272.886C423.029 274.981 422.237 277.201 421.771 279.488L356.051 244.561V248.897L356.675 249.222L357.264 249.537V250.404L356.086 251.044V253.558L365.004 270.902L373.815 275.596L376.748 272.344L384.523 276.626L388.988 283.661L393.912 286.274L400.073 281.244L407.635 285.265L410.18 294.924L422.902 301.688C423.531 304.146 424.317 306.568 425.258 308.94C425.341 309.178 425.447 309.428 425.553 309.699C429.77 319.888 436.473 328.615 444.036 332.636C444.942 333.131 445.892 333.555 446.875 333.904C447.394 334.095 447.925 334.257 448.465 334.392C448.936 334.508 449.407 334.605 449.878 334.685C451.366 334.935 452.891 334.935 454.378 334.685L454.991 334.544C455.284 334.49 455.571 334.414 455.851 334.316L456.511 334.078C456.744 334 456.969 333.902 457.182 333.785C457.4 333.699 457.612 333.601 457.818 333.493L458.124 333.319C458.18 333.302 458.232 333.277 458.278 333.243C463.649 330.121 467.101 322.663 467.101 312.224C467.081 309.459 466.845 306.699 466.394 303.964Z" fill="#8EB4E3"/>
<path opacity="0.4" d="M459.727 308.3C459.727 312.43 457.371 314.523 454.461 312.972C451.551 311.422 449.184 306.837 449.184 302.707C449.184 298.577 451.54 296.485 454.461 298.035C455.302 298.506 456.035 299.125 456.617 299.856C456.87 302.533 457.926 305.092 459.668 307.249C459.711 307.598 459.731 307.949 459.727 308.3Z" fill="black"/>
<path opacity="0.4" d="M474.453 308.29C474.453 318.989 470.824 326.555 465.217 329.547C464.039 330.132 459.94 332.344 458.255 333.232C463.627 330.11 467.078 322.653 467.078 312.214C467.066 309.452 466.838 306.696 466.395 303.964C463.921 288.42 454.839 273.027 444.013 267.282C438.995 264.615 434.354 264.42 430.584 266.252L437.534 262.566C441.386 260.496 446.192 260.594 451.387 263.358C462.213 269.114 471.296 284.496 473.769 300.051C474.218 302.778 474.447 305.532 474.453 308.29Z" fill="white"/>
<path d="M467.077 312.192C467.077 322.631 463.626 330.089 458.254 333.211C459.938 332.322 464.085 330.11 465.216 329.525C470.823 326.533 474.451 318.967 474.451 308.268C474.451 307.878 474.451 307.477 474.451 307.076L467.077 311C467.065 311.422 467.077 311.813 467.077 312.192Z" fill="#8EB4E3"/>
<path opacity="0.1" d="M467.077 312.192C467.077 322.631 463.626 330.089 458.254 333.211C459.938 332.322 464.085 330.11 465.216 329.525C470.823 326.533 474.451 318.967 474.451 308.268C474.451 307.878 474.451 307.477 474.451 307.076L467.077 311C467.065 311.422 467.077 311.813 467.077 312.192Z" fill="black"/>
<path opacity="0.15" d="M422.054 283.921V286.122L356.062 251.065L357.276 250.415V249.504L422.054 283.921Z" fill="black"/>
<path opacity="0.15" d="M422.054 284.832V286.122L356.062 251.065L357.276 250.415V250.404L422.054 284.832Z" fill="black"/>
<path opacity="0.15" d="M450.75 329.536C448.248 329.476 445.809 328.807 443.682 327.596C432.926 321.883 424.174 304.886 424.174 289.71C424.174 280.854 427.083 274.241 432.161 271.542C435.695 269.656 439.877 269.894 444.271 272.225C455.014 277.938 463.766 294.989 463.766 310.165C463.766 319.01 460.857 325.634 455.78 328.322C454.248 329.127 452.513 329.545 450.75 329.536ZM437.261 271.379C435.692 271.371 434.147 271.745 432.785 272.463C428.156 274.924 425.387 281.374 425.387 289.699C425.387 304.528 433.869 321.135 444.306 326.642C448.299 328.81 452.081 329.005 455.226 327.335C459.855 324.875 462.624 318.436 462.624 310.111C462.624 295.271 454.142 278.675 443.717 273.157C441.768 272.066 439.542 271.468 437.261 271.423V271.379Z" fill="black"/>
<path opacity="0.4" d="M424.081 272.864C422.982 274.96 422.19 277.18 421.725 279.466L356.004 244.54L363.378 240.626L424.081 272.864Z" fill="white"/>
<path d="M509.497 276.257C512.937 270.263 516.871 256.8 518.827 250.003C521.607 240.355 517.107 234.285 511.994 234.036C508.802 234.491 498.282 269.688 498.282 269.688C497.104 270.545 481.119 278.013 475.983 279.889C475.064 280.209 474.051 280.209 473.132 279.889C470.67 279.065 468.986 279.217 466.571 279C464.674 278.826 463.72 278.209 463.472 278.577C463.248 279.035 463.219 279.553 463.391 280.029C463.564 280.505 463.925 280.904 464.403 281.146C465.443 281.704 466.55 282.147 467.701 282.469C465.637 283.045 463.485 283.312 461.328 283.26C456.381 283.162 454.602 285.135 458.442 289.764C460.798 292.647 464.698 293.558 473.403 290.794C475.9 289.992 479.293 288.442 482.462 287.39C488.988 285.222 490.708 284.962 495.679 283.412C502.924 281.157 507.966 278.924 509.497 276.257Z" fill="#FFA8A7"/>
<path d="M510.075 233.125C513.079 233.504 515.965 234.122 517.744 236.377C519.522 238.632 520.948 241.797 519.204 250.415C517.869 256.475 516.082 262.444 513.856 268.279C513.856 268.279 506.859 271.032 499.426 264.052L504.538 245.862C504.538 245.862 505.363 234.036 510.075 233.125Z" fill="#455A64"/>
</g>
<defs>
<clipPath id="clip0_269_73">
<rect width="589" height="542" fill="white"/>
</clipPath>
</defs>
</svg>
